<?xml version="1.0" encoding="utf-8" standalone="no"?>
<!DOCTYPE svg PUBLIC "-//W3C//DTD SVG 1.1//EN"
  "http://www.w3.org/Graphics/SVG/1.1/DTD/svg11.dtd">
<svg xmlns:xlink="http://www.w3.org/1999/xlink" width="648pt" height="648pt" viewBox="0 0 648 648" xmlns="http://www.w3.org/2000/svg" version="1.1">
 <metadata>
  <rdf:RDF xmlns:dc="http://purl.org/dc/elements/1.1/" xmlns:cc="http://creativecommons.org/ns#" xmlns:rdf="http://www.w3.org/1999/02/22-rdf-syntax-ns#">
   <cc:Work>
    <dc:type rdf:resource="http://purl.org/dc/dcmitype/StillImage"/>
    <dc:date>2026-05-02T19:44:47.992471</dc:date>
    <dc:format>image/svg+xml</dc:format>
    <dc:creator>
     <cc:Agent>
      <dc:title>Matplotlib v3.10.9, https://matplotlib.org/</dc:title>
     </cc:Agent>
    </dc:creator>
   </cc:Work>
  </rdf:RDF>
 </metadata>
 <defs>
  <style type="text/css">*{stroke-linejoin: round; stroke-linecap: butt}</style>
 </defs>
 <g id="figure_1">
  <g id="patch_1">
   <path d="M 0 648 
L 648 648 
L 648 0 
L 0 0 
z
" style="fill: #ffffff"/>
  </g>
  <g id="axes_1">
   <g id="patch_2">
    <path d="M 54.68 606.04 
L 633.84 606.04 
L 633.84 26.88 
L 54.68 26.88 
z
" style="fill: #ffffff"/>
   </g>
   <g id="patch_3">
    <path d="M 76.955385 583.764615 
L 611.564615 583.764615 
L 611.564615 49.155385 
L 76.955385 49.155385 
z
" clip-path="url(#p8d6d42fe3f)" style="fill: #dce7df; stroke: #4f6f5f; stroke-width: 1.5; stroke-linejoin: miter"/>
   </g>
   <g id="patch_4">
    <path d="M 264.068615 321.806092 
C 265.486416 321.806092 266.846337 321.242794 267.848874 320.240258 
C 268.85141 319.237722 269.414708 317.8778 269.414708 316.46 
C 269.414708 315.0422 268.85141 313.682278 267.848874 312.679742 
C 266.846337 311.677206 265.486416 311.113908 264.068615 311.113908 
C 262.650815 311.113908 261.290893 311.677206 260.288357 312.679742 
C 259.285821 313.682278 258.722523 315.0422 258.722523 316.46 
C 258.722523 317.8778 259.285821 319.237722 260.288357 320.240258 
C 261.290893 321.242794 262.650815 321.806092 264.068615 321.806092 
z
" clip-path="url(#p8d6d42fe3f)" style="fill: #1f77b4; stroke: #ffffff; stroke-width: 0.8; stroke-linejoin: miter"/>
   </g>
   <g id="patch_5">
    <path d="M 286.344 277.255323 
C 287.7618 277.255323 289.121722 276.692025 290.124258 275.689489 
C 291.126794 274.686953 291.690092 273.327031 291.690092 271.909231 
C 291.690092 270.491431 291.126794 269.131509 290.124258 268.128973 
C 289.121722 267.126436 287.7618 266.563138 286.344 266.563138 
C 284.9262 266.563138 283.566278 267.126436 282.563742 268.128973 
C 281.561206 269.131509 280.997908 270.491431 280.997908 271.909231 
C 280.997908 273.327031 281.561206 274.686953 282.563742 275.689489 
C 283.566278 276.692025 284.9262 277.255323 286.344 277.255323 
z
" clip-path="url(#p8d6d42fe3f)" style="fill: #1f77b4; stroke: #ffffff; stroke-width: 0.8; stroke-linejoin: miter"/>
   </g>
   <g id="patch_6">
    <path d="M 321.984615 250.524862 
C 323.402416 250.524862 324.762337 249.961564 325.764874 248.959027 
C 326.76741 247.956491 327.330708 246.596569 327.330708 245.178769 
C 327.330708 243.760969 326.76741 242.401047 325.764874 241.398511 
C 324.762337 240.395975 323.402416 239.832677 321.984615 239.832677 
C 320.566815 239.832677 319.206893 240.395975 318.204357 241.398511 
C 317.201821 242.401047 316.638523 243.760969 316.638523 245.178769 
C 316.638523 246.596569 317.201821 247.956491 318.204357 248.959027 
C 319.206893 249.961564 320.566815 250.524862 321.984615 250.524862 
z
" clip-path="url(#p8d6d42fe3f)" style="fill: #1f77b4; stroke: #ffffff; stroke-width: 0.8; stroke-linejoin: miter"/>
   </g>
   <g id="patch_7">
    <path d="M 366.535385 250.524862 
C 367.953185 250.524862 369.313107 249.961564 370.315643 248.959027 
C 371.318179 247.956491 371.881477 246.596569 371.881477 245.178769 
C 371.881477 243.760969 371.318179 242.401047 370.315643 241.398511 
C 369.313107 240.395975 367.953185 239.832677 366.535385 239.832677 
C 365.117584 239.832677 363.757663 240.395975 362.755126 241.398511 
C 361.75259 242.401047 361.189292 243.760969 361.189292 245.178769 
C 361.189292 246.596569 361.75259 247.956491 362.755126 248.959027 
C 363.757663 249.961564 365.117584 250.524862 366.535385 250.524862 
z
" clip-path="url(#p8d6d42fe3f)" style="fill: #1f77b4; stroke: #ffffff; stroke-width: 0.8; stroke-linejoin: miter"/>
   </g>
   <g id="patch_8">
    <path d="M 402.176 277.255323 
C 403.5938 277.255323 404.953722 276.692025 405.956258 275.689489 
C 406.958794 274.686953 407.522092 273.327031 407.522092 271.909231 
C 407.522092 270.491431 406.958794 269.131509 405.956258 268.128973 
C 404.953722 267.126436 403.5938 266.563138 402.176 266.563138 
C 400.7582 266.563138 399.398278 267.126436 398.395742 268.128973 
C 397.393206 269.131509 396.829908 270.491431 396.829908 271.909231 
C 396.829908 273.327031 397.393206 274.686953 398.395742 275.689489 
C 399.398278 276.692025 400.7582 277.255323 402.176 277.255323 
z
" clip-path="url(#p8d6d42fe3f)" style="fill: #1f77b4; stroke: #ffffff; stroke-width: 0.8; stroke-linejoin: miter"/>
   </g>
   <g id="patch_9">
    <path d="M 424.451385 321.806092 
C 425.869185 321.806092 427.229107 321.242794 428.231643 320.240258 
C 429.234179 319.237722 429.797477 317.8778 429.797477 316.46 
C 429.797477 315.0422 429.234179 313.682278 428.231643 312.679742 
C 427.229107 311.677206 425.869185 311.113908 424.451385 311.113908 
C 423.033584 311.113908 421.673663 311.677206 420.671126 312.679742 
C 419.66859 313.682278 419.105292 315.0422 419.105292 316.46 
C 419.105292 317.8778 419.66859 319.237722 420.671126 320.240258 
C 421.673663 321.242794 423.033584 321.806092 424.451385 321.806092 
z
" clip-path="url(#p8d6d42fe3f)" style="fill: #2ca02c; stroke: #ffffff; stroke-width: 0.8; stroke-linejoin: miter"/>
   </g>
   <g id="patch_10">
    <path d="M 379.900615 375.267015 
C 381.318416 375.267015 382.678337 374.703717 383.680874 373.701181 
C 384.68341 372.698645 385.246708 371.338723 385.246708 369.920923 
C 385.246708 368.503123 384.68341 367.143201 383.680874 366.140665 
C 382.678337 365.138129 381.318416 364.574831 379.900615 364.574831 
C 378.482815 364.574831 377.122893 365.138129 376.120357 366.140665 
C 375.117821 367.143201 374.554523 368.503123 374.554523 369.920923 
C 374.554523 371.338723 375.117821 372.698645 376.120357 373.701181 
C 377.122893 374.703717 378.482815 375.267015 379.900615 375.267015 
z
" clip-path="url(#p8d6d42fe3f)" style="fill: #2ca02c; stroke: #ffffff; stroke-width: 0.8; stroke-linejoin: miter"/>
   </g>
   <g id="patch_11">
    <path d="M 308.619385 375.267015 
C 310.037185 375.267015 311.397107 374.703717 312.399643 373.701181 
C 313.402179 372.698645 313.965477 371.338723 313.965477 369.920923 
C 313.965477 368.503123 313.402179 367.143201 312.399643 366.140665 
C 311.397107 365.138129 310.037185 364.574831 308.619385 364.574831 
C 307.201584 364.574831 305.841663 365.138129 304.839126 366.140665 
C 303.83659 367.143201 303.273292 368.503123 303.273292 369.920923 
C 303.273292 371.338723 303.83659 372.698645 304.839126 373.701181 
C 305.841663 374.703717 307.201584 375.267015 308.619385 375.267015 
z
" clip-path="url(#p8d6d42fe3f)" style="fill: #2ca02c; stroke: #ffffff; stroke-width: 0.8; stroke-linejoin: miter"/>
   </g>
   <g id="patch_12">
    <path d="M 215.062769 245.178769 
L 250.703385 245.178769 
L 250.703385 191.717846 
L 215.062769 191.717846 
z
" clip-path="url(#p8d6d42fe3f)" style="fill: #666a70; stroke: #33363a; stroke-linejoin: miter"/>
   </g>
   <g id="patch_13">
    <path d="M 366.535385 349.873077 
L 411.086154 349.873077 
L 411.086154 318.687538 
L 366.535385 318.687538 
z
" clip-path="url(#p8d6d42fe3f)" style="fill: #666a70; stroke: #33363a; stroke-linejoin: miter"/>
   </g>
   <g id="patch_14">
    <path d="M 475.684769 260.771538 
L 506.870308 260.771538 
L 506.870308 211.765692 
L 475.684769 211.765692 
z
" clip-path="url(#p8d6d42fe3f)" style="fill: #666a70; stroke: #33363a; stroke-linejoin: miter"/>
   </g>
   <g id="patch_15">
    <path d="M 299.709231 455.4584 
C 301.127031 455.4584 302.486953 454.895102 303.489489 453.892566 
C 304.492025 452.89003 305.055323 451.530108 305.055323 450.112308 
C 305.055323 448.694507 304.492025 447.334586 303.489489 446.33205 
C 302.486953 445.329513 301.127031 444.766215 299.709231 444.766215 
C 298.291431 444.766215 296.931509 445.329513 295.928973 446.33205 
C 294.926436 447.334586 294.363138 448.694507 294.363138 450.112308 
C 294.363138 451.530108 294.926436 452.89003 295.928973 453.892566 
C 296.931509 454.895102 298.291431 455.4584 299.709231 455.4584 
z
" clip-path="url(#p8d6d42fe3f)" style="fill: #d9534f; stroke: #8c2d2a; stroke-linejoin: miter"/>
   </g>
   <g id="patch_16">
    <path d="M 469.002154 419.817785 
C 470.419954 419.817785 471.779876 419.254487 472.782412 418.25195 
C 473.784948 417.249414 474.348246 415.889493 474.348246 414.471692 
C 474.348246 413.053892 473.784948 411.69397 472.782412 410.691434 
C 471.779876 409.688898 470.419954 409.1256 469.002154 409.1256 
C 467.584354 409.1256 466.224432 409.688898 465.221896 410.691434 
C 464.21936 411.69397 463.656062 413.053892 463.656062 414.471692 
C 463.656062 415.889493 464.21936 417.249414 465.221896 418.25195 
C 466.224432 419.254487 467.584354 419.817785 469.002154 419.817785 
z
" clip-path="url(#p8d6d42fe3f)" style="fill: #d9534f; stroke: #8c2d2a; stroke-linejoin: miter"/>
   </g>
   <g id="patch_17">
    <path d="M 148.236615 459.022462 
L 228.428 459.022462 
L 228.428 396.651385 
L 148.236615 396.651385 
z
" clip-path="url(#p8d6d42fe3f)" style="fill: #cf3b31; opacity: 0.35; stroke: #8a1f18; stroke-linejoin: miter"/>
   </g>
   <g id="patch_18">
    <path d="M 406.631077 200.628 
L 504.642769 200.628 
L 504.642769 147.167077 
L 406.631077 147.167077 
z
" clip-path="url(#p8d6d42fe3f)" style="fill: #e0a824; opacity: 0.4; stroke: #9a6d12; stroke-linejoin: miter"/>
   </g>
   <g id="patch_19">
    <path d="M 143.781538 524.9576 
C 145.908239 524.9576 147.948121 524.112653 149.451926 522.608849 
C 150.95573 521.105044 151.800677 519.065162 151.800677 516.938462 
C 151.800677 514.811761 150.95573 512.771879 149.451926 511.268074 
C 147.948121 509.76427 145.908239 508.919323 143.781538 508.919323 
C 141.654838 508.919323 139.614956 509.76427 138.111151 511.268074 
C 136.607347 512.771879 135.7624 514.811761 135.7624 516.938462 
C 135.7624 519.065162 136.607347 521.105044 138.111151 522.608849 
C 139.614956 524.112653 141.654838 524.9576 143.781538 524.9576 
z
" clip-path="url(#p8d6d42fe3f)" style="fill: #4c78d8; stroke: #ffffff; stroke-linejoin: miter"/>
   </g>
   <g id="patch_20">
    <path d="M 544.738462 511.592369 
C 546.865162 511.592369 548.905044 510.747422 550.408849 509.243618 
C 551.912653 507.739814 552.7576 505.699931 552.7576 503.573231 
C 552.7576 501.44653 551.912653 499.406648 550.408849 497.902844 
C 548.905044 496.399039 546.865162 495.554092 544.738462 495.554092 
C 542.611761 495.554092 540.571879 496.399039 539.068074 497.902844 
C 537.56427 499.406648 536.719323 501.44653 536.719323 503.573231 
C 536.719323 505.699931 537.56427 507.739814 539.068074 509.243618 
C 540.571879 510.747422 542.611761 511.592369 544.738462 511.592369 
z
" clip-path="url(#p8d6d42fe3f)" style="fill: #4c78d8; stroke: #ffffff; stroke-linejoin: miter"/>
   </g>
   <g id="patch_21">
    <path d="M 531.373231 137.365908 
C 533.499931 137.365908 535.539814 136.520961 537.043618 135.017156 
C 538.547422 133.513352 539.392369 131.47347 539.392369 129.346769 
C 539.392369 127.220069 538.547422 125.180186 537.043618 123.676382 
C 535.539814 122.172578 533.499931 121.327631 531.373231 121.327631 
C 529.24653 121.327631 527.206648 122.172578 525.702844 123.676382 
C 524.199039 125.180186 523.354092 127.220069 523.354092 129.346769 
C 523.354092 131.47347 524.199039 133.513352 525.702844 135.017156 
C 527.206648 136.520961 529.24653 137.365908 531.373231 137.365908 
z
" clip-path="url(#p8d6d42fe3f)" style="fill: #4c78d8; stroke: #ffffff; stroke-linejoin: miter"/>
   </g>
   <g id="patch_22">
    <path d="M 157.146769 128.455754 
C 159.27347 128.455754 161.313352 127.610807 162.817156 126.107003 
C 164.320961 124.603198 165.165908 122.563316 165.165908 120.436615 
C 165.165908 118.309915 164.320961 116.270032 162.817156 114.766228 
C 161.313352 113.262424 159.27347 112.417477 157.146769 112.417477 
C 155.020069 112.417477 152.980186 113.262424 151.476382 114.766228 
C 149.972578 116.270032 149.127631 118.309915 149.127631 120.436615 
C 149.127631 122.563316 149.972578 124.603198 151.476382 126.107003 
C 152.980186 127.610807 155.020069 128.455754 157.146769 128.455754 
z
" clip-path="url(#p8d6d42fe3f)" style="fill: #4c78d8; stroke: #ffffff; stroke-linejoin: miter"/>
   </g>
   <g id="matplotlib.axis_1">
    <g id="xtick_1">
     <g id="line2d_1">
      <path d="M 76.955385 606.04 
L 76.955385 26.88 
" clip-path="url(#p8d6d42fe3f)" style="fill: none; stroke: #b0b0b0; stroke-opacity: 0.25; stroke-width: 0.8; stroke-linecap: square"/>
     </g>
     <g id="line2d_2">
      <defs>
       <path id="m3ff97eb95c" d="M 0 0 
L 0 3.5 
" style="stroke: #000000; stroke-width: 0.8"/>
      </defs>
      <g>
       <use xlink:href="#m3ff97eb95c" x="76.955385" y="606.04" style="stroke: #000000; stroke-width: 0.8"/>
      </g>
     </g>
     <g id="text_1">
      <!-- −60 -->
      <g transform="translate(66.403041 620.638438) scale(0.1 -0.1)">
       <defs>
        <path id="DejaVuSans-2212" d="M 678 2272 
L 4684 2272 
L 4684 1741 
L 678 1741 
L 678 2272 
z
" transform="scale(0.015625)"/>
        <path id="DejaVuSans-36" d="M 2113 2584 
Q 1688 2584 1439 2293 
Q 1191 2003 1191 1497 
Q 1191 994 1439 701 
Q 1688 409 2113 409 
Q 2538 409 2786 701 
Q 3034 994 3034 1497 
Q 3034 2003 2786 2293 
Q 2538 2584 2113 2584 
z
M 3366 4563 
L 3366 3988 
Q 3128 4100 2886 4159 
Q 2644 4219 2406 4219 
Q 1781 4219 1451 3797 
Q 1122 3375 1075 2522 
Q 1259 2794 1537 2939 
Q 1816 3084 2150 3084 
Q 2853 3084 3261 2657 
Q 3669 2231 3669 1497 
Q 3669 778 3244 343 
Q 2819 -91 2113 -91 
Q 1303 -91 875 529 
Q 447 1150 447 2328 
Q 447 3434 972 4092 
Q 1497 4750 2381 4750 
Q 2619 4750 2861 4703 
Q 3103 4656 3366 4563 
z
" transform="scale(0.015625)"/>
        <path id="DejaVuSans-30" d="M 2034 4250 
Q 1547 4250 1301 3770 
Q 1056 3291 1056 2328 
Q 1056 1369 1301 889 
Q 1547 409 2034 409 
Q 2525 409 2770 889 
Q 3016 1369 3016 2328 
Q 3016 3291 2770 3770 
Q 2525 4250 2034 4250 
z
M 2034 4750 
Q 2819 4750 3233 4129 
Q 3647 3509 3647 2328 
Q 3647 1150 3233 529 
Q 2819 -91 2034 -91 
Q 1250 -91 836 529 
Q 422 1150 422 2328 
Q 422 3509 836 4129 
Q 1250 4750 2034 4750 
z
" transform="scale(0.015625)"/>
       </defs>
       <use xlink:href="#DejaVuSans-2212"/>
       <use xlink:href="#DejaVuSans-36" transform="translate(83.789062 0)"/>
       <use xlink:href="#DejaVuSans-30" transform="translate(147.412109 0)"/>
      </g>
     </g>
    </g>
    <g id="xtick_2">
     <g id="line2d_3">
      <path d="M 166.056923 606.04 
L 166.056923 26.88 
" clip-path="url(#p8d6d42fe3f)" style="fill: none; stroke: #b0b0b0; stroke-opacity: 0.25; stroke-width: 0.8; stroke-linecap: square"/>
     </g>
     <g id="line2d_4">
      <g>
       <use xlink:href="#m3ff97eb95c" x="166.056923" y="606.04" style="stroke: #000000; stroke-width: 0.8"/>
      </g>
     </g>
     <g id="text_2">
      <!-- −40 -->
      <g transform="translate(155.504579 620.638438) scale(0.1 -0.1)">
       <defs>
        <path id="DejaVuSans-34" d="M 2419 4116 
L 825 1625 
L 2419 1625 
L 2419 4116 
z
M 2253 4666 
L 3047 4666 
L 3047 1625 
L 3713 1625 
L 3713 1100 
L 3047 1100 
L 3047 0 
L 2419 0 
L 2419 1100 
L 313 1100 
L 313 1709 
L 2253 4666 
z
" transform="scale(0.015625)"/>
       </defs>
       <use xlink:href="#DejaVuSans-2212"/>
       <use xlink:href="#DejaVuSans-34" transform="translate(83.789062 0)"/>
       <use xlink:href="#DejaVuSans-30" transform="translate(147.412109 0)"/>
      </g>
     </g>
    </g>
    <g id="xtick_3">
     <g id="line2d_5">
      <path d="M 255.158462 606.04 
L 255.158462 26.88 
" clip-path="url(#p8d6d42fe3f)" style="fill: none; stroke: #b0b0b0; stroke-opacity: 0.25; stroke-width: 0.8; stroke-linecap: square"/>
     </g>
     <g id="line2d_6">
      <g>
       <use xlink:href="#m3ff97eb95c" x="255.158462" y="606.04" style="stroke: #000000; stroke-width: 0.8"/>
      </g>
     </g>
     <g id="text_3">
      <!-- −20 -->
      <g transform="translate(244.606118 620.638438) scale(0.1 -0.1)">
       <defs>
        <path id="DejaVuSans-32" d="M 1228 531 
L 3431 531 
L 3431 0 
L 469 0 
L 469 531 
Q 828 903 1448 1529 
Q 2069 2156 2228 2338 
Q 2531 2678 2651 2914 
Q 2772 3150 2772 3378 
Q 2772 3750 2511 3984 
Q 2250 4219 1831 4219 
Q 1534 4219 1204 4116 
Q 875 4013 500 3803 
L 500 4441 
Q 881 4594 1212 4672 
Q 1544 4750 1819 4750 
Q 2544 4750 2975 4387 
Q 3406 4025 3406 3419 
Q 3406 3131 3298 2873 
Q 3191 2616 2906 2266 
Q 2828 2175 2409 1742 
Q 1991 1309 1228 531 
z
" transform="scale(0.015625)"/>
       </defs>
       <use xlink:href="#DejaVuSans-2212"/>
       <use xlink:href="#DejaVuSans-32" transform="translate(83.789062 0)"/>
       <use xlink:href="#DejaVuSans-30" transform="translate(147.412109 0)"/>
      </g>
     </g>
    </g>
    <g id="xtick_4">
     <g id="line2d_7">
      <path d="M 344.26 606.04 
L 344.26 26.88 
" clip-path="url(#p8d6d42fe3f)" style="fill: none; stroke: #b0b0b0; stroke-opacity: 0.25; stroke-width: 0.8; stroke-linecap: square"/>
     </g>
     <g id="line2d_8">
      <g>
       <use xlink:href="#m3ff97eb95c" x="344.26" y="606.04" style="stroke: #000000; stroke-width: 0.8"/>
      </g>
     </g>
     <g id="text_4">
      <!-- 0 -->
      <g transform="translate(341.07875 620.638438) scale(0.1 -0.1)">
       <use xlink:href="#DejaVuSans-30"/>
      </g>
     </g>
    </g>
    <g id="xtick_5">
     <g id="line2d_9">
      <path d="M 433.361538 606.04 
L 433.361538 26.88 
" clip-path="url(#p8d6d42fe3f)" style="fill: none; stroke: #b0b0b0; stroke-opacity: 0.25; stroke-width: 0.8; stroke-linecap: square"/>
     </g>
     <g id="line2d_10">
      <g>
       <use xlink:href="#m3ff97eb95c" x="433.361538" y="606.04" style="stroke: #000000; stroke-width: 0.8"/>
      </g>
     </g>
     <g id="text_5">
      <!-- 20 -->
      <g transform="translate(426.999038 620.638438) scale(0.1 -0.1)">
       <use xlink:href="#DejaVuSans-32"/>
       <use xlink:href="#DejaVuSans-30" transform="translate(63.623047 0)"/>
      </g>
     </g>
    </g>
    <g id="xtick_6">
     <g id="line2d_11">
      <path d="M 522.463077 606.04 
L 522.463077 26.88 
" clip-path="url(#p8d6d42fe3f)" style="fill: none; stroke: #b0b0b0; stroke-opacity: 0.25; stroke-width: 0.8; stroke-linecap: square"/>
     </g>
     <g id="line2d_12">
      <g>
       <use xlink:href="#m3ff97eb95c" x="522.463077" y="606.04" style="stroke: #000000; stroke-width: 0.8"/>
      </g>
     </g>
     <g id="text_6">
      <!-- 40 -->
      <g transform="translate(516.100577 620.638438) scale(0.1 -0.1)">
       <use xlink:href="#DejaVuSans-34"/>
       <use xlink:href="#DejaVuSans-30" transform="translate(63.623047 0)"/>
      </g>
     </g>
    </g>
    <g id="xtick_7">
     <g id="line2d_13">
      <path d="M 611.564615 606.04 
L 611.564615 26.88 
" clip-path="url(#p8d6d42fe3f)" style="fill: none; stroke: #b0b0b0; stroke-opacity: 0.25; stroke-width: 0.8; stroke-linecap: square"/>
     </g>
     <g id="line2d_14">
      <g>
       <use xlink:href="#m3ff97eb95c" x="611.564615" y="606.04" style="stroke: #000000; stroke-width: 0.8"/>
      </g>
     </g>
     <g id="text_7">
      <!-- 60 -->
      <g transform="translate(605.202115 620.638438) scale(0.1 -0.1)">
       <use xlink:href="#DejaVuSans-36"/>
       <use xlink:href="#DejaVuSans-30" transform="translate(63.623047 0)"/>
      </g>
     </g>
    </g>
    <g id="text_8">
     <!-- x, m -->
     <g transform="translate(333.252187 634.316563) scale(0.1 -0.1)">
      <defs>
       <path id="DejaVuSans-78" d="M 3513 3500 
L 2247 1797 
L 3578 0 
L 2900 0 
L 1881 1375 
L 863 0 
L 184 0 
L 1544 1831 
L 300 3500 
L 978 3500 
L 1906 2253 
L 2834 3500 
L 3513 3500 
z
" transform="scale(0.015625)"/>
       <path id="DejaVuSans-2c" d="M 750 794 
L 1409 794 
L 1409 256 
L 897 -744 
L 494 -744 
L 750 256 
L 750 794 
z
" transform="scale(0.015625)"/>
       <path id="DejaVuSans-20" transform="scale(0.015625)"/>
       <path id="DejaVuSans-6d" d="M 3328 2828 
Q 3544 3216 3844 3400 
Q 4144 3584 4550 3584 
Q 5097 3584 5394 3201 
Q 5691 2819 5691 2113 
L 5691 0 
L 5113 0 
L 5113 2094 
Q 5113 2597 4934 2840 
Q 4756 3084 4391 3084 
Q 3944 3084 3684 2787 
Q 3425 2491 3425 1978 
L 3425 0 
L 2847 0 
L 2847 2094 
Q 2847 2600 2669 2842 
Q 2491 3084 2119 3084 
Q 1678 3084 1418 2786 
Q 1159 2488 1159 1978 
L 1159 0 
L 581 0 
L 581 3500 
L 1159 3500 
L 1159 2956 
Q 1356 3278 1631 3431 
Q 1906 3584 2284 3584 
Q 2666 3584 2933 3390 
Q 3200 3197 3328 2828 
z
" transform="scale(0.015625)"/>
      </defs>
      <use xlink:href="#DejaVuSans-78"/>
      <use xlink:href="#DejaVuSans-2c" transform="translate(59.179688 0)"/>
      <use xlink:href="#DejaVuSans-20" transform="translate(90.966797 0)"/>
      <use xlink:href="#DejaVuSans-6d" transform="translate(122.753906 0)"/>
     </g>
    </g>
   </g>
   <g id="matplotlib.axis_2">
    <g id="ytick_1">
     <g id="line2d_15">
      <path d="M 54.68 583.764615 
L 633.84 583.764615 
" clip-path="url(#p8d6d42fe3f)" style="fill: none; stroke: #b0b0b0; stroke-opacity: 0.25; stroke-width: 0.8; stroke-linecap: square"/>
     </g>
     <g id="line2d_16">
      <defs>
       <path id="m4006e40740" d="M 0 0 
L -3.5 0 
" style="stroke: #000000; stroke-width: 0.8"/>
      </defs>
      <g>
       <use xlink:href="#m4006e40740" x="54.68" y="583.764615" style="stroke: #000000; stroke-width: 0.8"/>
      </g>
     </g>
     <g id="text_9">
      <!-- −60 -->
      <g transform="translate(26.575312 587.563834) scale(0.1 -0.1)">
       <use xlink:href="#DejaVuSans-2212"/>
       <use xlink:href="#DejaVuSans-36" transform="translate(83.789062 0)"/>
       <use xlink:href="#DejaVuSans-30" transform="translate(147.412109 0)"/>
      </g>
     </g>
    </g>
    <g id="ytick_2">
     <g id="line2d_17">
      <path d="M 54.68 494.663077 
L 633.84 494.663077 
" clip-path="url(#p8d6d42fe3f)" style="fill: none; stroke: #b0b0b0; stroke-opacity: 0.25; stroke-width: 0.8; stroke-linecap: square"/>
     </g>
     <g id="line2d_18">
      <g>
       <use xlink:href="#m4006e40740" x="54.68" y="494.663077" style="stroke: #000000; stroke-width: 0.8"/>
      </g>
     </g>
     <g id="text_10">
      <!-- −40 -->
      <g transform="translate(26.575312 498.462296) scale(0.1 -0.1)">
       <use xlink:href="#DejaVuSans-2212"/>
       <use xlink:href="#DejaVuSans-34" transform="translate(83.789062 0)"/>
       <use xlink:href="#DejaVuSans-30" transform="translate(147.412109 0)"/>
      </g>
     </g>
    </g>
    <g id="ytick_3">
     <g id="line2d_19">
      <path d="M 54.68 405.561538 
L 633.84 405.561538 
" clip-path="url(#p8d6d42fe3f)" style="fill: none; stroke: #b0b0b0; stroke-opacity: 0.25; stroke-width: 0.8; stroke-linecap: square"/>
     </g>
     <g id="line2d_20">
      <g>
       <use xlink:href="#m4006e40740" x="54.68" y="405.561538" style="stroke: #000000; stroke-width: 0.8"/>
      </g>
     </g>
     <g id="text_11">
      <!-- −20 -->
      <g transform="translate(26.575312 409.360757) scale(0.1 -0.1)">
       <use xlink:href="#DejaVuSans-2212"/>
       <use xlink:href="#DejaVuSans-32" transform="translate(83.789062 0)"/>
       <use xlink:href="#DejaVuSans-30" transform="translate(147.412109 0)"/>
      </g>
     </g>
    </g>
    <g id="ytick_4">
     <g id="line2d_21">
      <path d="M 54.68 316.46 
L 633.84 316.46 
" clip-path="url(#p8d6d42fe3f)" style="fill: none; stroke: #b0b0b0; stroke-opacity: 0.25; stroke-width: 0.8; stroke-linecap: square"/>
     </g>
     <g id="line2d_22">
      <g>
       <use xlink:href="#m4006e40740" x="54.68" y="316.46" style="stroke: #000000; stroke-width: 0.8"/>
      </g>
     </g>
     <g id="text_12">
      <!-- 0 -->
      <g transform="translate(41.3175 320.259219) scale(0.1 -0.1)">
       <use xlink:href="#DejaVuSans-30"/>
      </g>
     </g>
    </g>
    <g id="ytick_5">
     <g id="line2d_23">
      <path d="M 54.68 227.358462 
L 633.84 227.358462 
" clip-path="url(#p8d6d42fe3f)" style="fill: none; stroke: #b0b0b0; stroke-opacity: 0.25; stroke-width: 0.8; stroke-linecap: square"/>
     </g>
     <g id="line2d_24">
      <g>
       <use xlink:href="#m4006e40740" x="54.68" y="227.358462" style="stroke: #000000; stroke-width: 0.8"/>
      </g>
     </g>
     <g id="text_13">
      <!-- 20 -->
      <g transform="translate(34.955 231.15768) scale(0.1 -0.1)">
       <use xlink:href="#DejaVuSans-32"/>
       <use xlink:href="#DejaVuSans-30" transform="translate(63.623047 0)"/>
      </g>
     </g>
    </g>
    <g id="ytick_6">
     <g id="line2d_25">
      <path d="M 54.68 138.256923 
L 633.84 138.256923 
" clip-path="url(#p8d6d42fe3f)" style="fill: none; stroke: #b0b0b0; stroke-opacity: 0.25; stroke-width: 0.8; stroke-linecap: square"/>
     </g>
     <g id="line2d_26">
      <g>
       <use xlink:href="#m4006e40740" x="54.68" y="138.256923" style="stroke: #000000; stroke-width: 0.8"/>
      </g>
     </g>
     <g id="text_14">
      <!-- 40 -->
      <g transform="translate(34.955 142.056142) scale(0.1 -0.1)">
       <use xlink:href="#DejaVuSans-34"/>
       <use xlink:href="#DejaVuSans-30" transform="translate(63.623047 0)"/>
      </g>
     </g>
    </g>
    <g id="ytick_7">
     <g id="line2d_27">
      <path d="M 54.68 49.155385 
L 633.84 49.155385 
" clip-path="url(#p8d6d42fe3f)" style="fill: none; stroke: #b0b0b0; stroke-opacity: 0.25; stroke-width: 0.8; stroke-linecap: square"/>
     </g>
     <g id="line2d_28">
      <g>
       <use xlink:href="#m4006e40740" x="54.68" y="49.155385" style="stroke: #000000; stroke-width: 0.8"/>
      </g>
     </g>
     <g id="text_15">
      <!-- 60 -->
      <g transform="translate(34.955 52.954603) scale(0.1 -0.1)">
       <use xlink:href="#DejaVuSans-36"/>
       <use xlink:href="#DejaVuSans-30" transform="translate(63.623047 0)"/>
      </g>
     </g>
    </g>
    <g id="text_16">
     <!-- y, m -->
     <g transform="translate(20.495625 327.467813) rotate(-90) scale(0.1 -0.1)">
      <defs>
       <path id="DejaVuSans-79" d="M 2059 -325 
Q 1816 -950 1584 -1140 
Q 1353 -1331 966 -1331 
L 506 -1331 
L 506 -850 
L 844 -850 
Q 1081 -850 1212 -737 
Q 1344 -625 1503 -206 
L 1606 56 
L 191 3500 
L 800 3500 
L 1894 763 
L 2988 3500 
L 3597 3500 
L 2059 -325 
z
" transform="scale(0.015625)"/>
      </defs>
      <use xlink:href="#DejaVuSans-79"/>
      <use xlink:href="#DejaVuSans-2c" transform="translate(59.179688 0)"/>
      <use xlink:href="#DejaVuSans-20" transform="translate(90.966797 0)"/>
      <use xlink:href="#DejaVuSans-6d" transform="translate(122.753906 0)"/>
     </g>
    </g>
   </g>
   <g id="patch_23">
    <path d="M 54.68 606.04 
L 54.68 26.88 
" style="fill: none; stroke: #000000; stroke-width: 0.8; stroke-linejoin: miter; stroke-linecap: square"/>
   </g>
   <g id="patch_24">
    <path d="M 633.84 606.04 
L 633.84 26.88 
" style="fill: none; stroke: #000000; stroke-width: 0.8; stroke-linejoin: miter; stroke-linecap: square"/>
   </g>
   <g id="patch_25">
    <path d="M 54.68 606.04 
L 633.84 606.04 
" style="fill: none; stroke: #000000; stroke-width: 0.8; stroke-linejoin: miter; stroke-linecap: square"/>
   </g>
   <g id="patch_26">
    <path d="M 54.68 26.88 
L 633.84 26.88 
" style="fill: none; stroke: #000000; stroke-width: 0.8; stroke-linejoin: miter; stroke-linecap: square"/>
   </g>
   <g id="text_17">
    <!-- A0 -->
    <g transform="translate(270.751231 309.777385) scale(0.08 -0.08)">
     <defs>
      <path id="DejaVuSans-41" d="M 2188 4044 
L 1331 1722 
L 3047 1722 
L 2188 4044 
z
M 1831 4666 
L 2547 4666 
L 4325 0 
L 3669 0 
L 3244 1197 
L 1141 1197 
L 716 0 
L 50 0 
L 1831 4666 
z
" transform="scale(0.015625)"/>
     </defs>
     <use xlink:href="#DejaVuSans-41"/>
     <use xlink:href="#DejaVuSans-30" transform="translate(68.408203 0)"/>
    </g>
   </g>
   <g id="text_18">
    <!-- A1 -->
    <g transform="translate(293.026615 265.226615) scale(0.08 -0.08)">
     <defs>
      <path id="DejaVuSans-31" d="M 794 531 
L 1825 531 
L 1825 4091 
L 703 3866 
L 703 4441 
L 1819 4666 
L 2450 4666 
L 2450 531 
L 3481 531 
L 3481 0 
L 794 0 
L 794 531 
z
" transform="scale(0.015625)"/>
     </defs>
     <use xlink:href="#DejaVuSans-41"/>
     <use xlink:href="#DejaVuSans-31" transform="translate(68.408203 0)"/>
    </g>
   </g>
   <g id="text_19">
    <!-- A2 -->
    <g transform="translate(328.667231 238.496154) scale(0.08 -0.08)">
     <use xlink:href="#DejaVuSans-41"/>
     <use xlink:href="#DejaVuSans-32" transform="translate(68.408203 0)"/>
    </g>
   </g>
   <g id="text_20">
    <!-- A3 -->
    <g transform="translate(373.218 238.496154) scale(0.08 -0.08)">
     <defs>
      <path id="DejaVuSans-33" d="M 2597 2516 
Q 3050 2419 3304 2112 
Q 3559 1806 3559 1356 
Q 3559 666 3084 287 
Q 2609 -91 1734 -91 
Q 1441 -91 1130 -33 
Q 819 25 488 141 
L 488 750 
Q 750 597 1062 519 
Q 1375 441 1716 441 
Q 2309 441 2620 675 
Q 2931 909 2931 1356 
Q 2931 1769 2642 2001 
Q 2353 2234 1838 2234 
L 1294 2234 
L 1294 2753 
L 1863 2753 
Q 2328 2753 2575 2939 
Q 2822 3125 2822 3475 
Q 2822 3834 2567 4026 
Q 2313 4219 1838 4219 
Q 1578 4219 1281 4162 
Q 984 4106 628 3988 
L 628 4550 
Q 988 4650 1302 4700 
Q 1616 4750 1894 4750 
Q 2613 4750 3031 4423 
Q 3450 4097 3450 3541 
Q 3450 3153 3228 2886 
Q 3006 2619 2597 2516 
z
" transform="scale(0.015625)"/>
     </defs>
     <use xlink:href="#DejaVuSans-41"/>
     <use xlink:href="#DejaVuSans-33" transform="translate(68.408203 0)"/>
    </g>
   </g>
   <g id="text_21">
    <!-- A4 -->
    <g transform="translate(408.858615 265.226615) scale(0.08 -0.08)">
     <use xlink:href="#DejaVuSans-41"/>
     <use xlink:href="#DejaVuSans-34" transform="translate(68.408203 0)"/>
    </g>
   </g>
   <g id="text_22">
    <!-- A5 -->
    <g transform="translate(431.134 309.777385) scale(0.08 -0.08)">
     <defs>
      <path id="DejaVuSans-35" d="M 691 4666 
L 3169 4666 
L 3169 4134 
L 1269 4134 
L 1269 2991 
Q 1406 3038 1543 3061 
Q 1681 3084 1819 3084 
Q 2600 3084 3056 2656 
Q 3513 2228 3513 1497 
Q 3513 744 3044 326 
Q 2575 -91 1722 -91 
Q 1428 -91 1123 -41 
Q 819 9 494 109 
L 494 744 
Q 775 591 1075 516 
Q 1375 441 1709 441 
Q 2250 441 2565 725 
Q 2881 1009 2881 1497 
Q 2881 1984 2565 2268 
Q 2250 2553 1709 2553 
Q 1456 2553 1204 2497 
Q 953 2441 691 2322 
L 691 4666 
z
" transform="scale(0.015625)"/>
     </defs>
     <use xlink:href="#DejaVuSans-41"/>
     <use xlink:href="#DejaVuSans-35" transform="translate(68.408203 0)"/>
    </g>
   </g>
   <g id="text_23">
    <!-- A6 -->
    <g transform="translate(386.583231 363.238308) scale(0.08 -0.08)">
     <use xlink:href="#DejaVuSans-41"/>
     <use xlink:href="#DejaVuSans-36" transform="translate(68.408203 0)"/>
    </g>
   </g>
   <g id="text_24">
    <!-- A7 -->
    <g transform="translate(315.302 363.238308) scale(0.08 -0.08)">
     <defs>
      <path id="DejaVuSans-37" d="M 525 4666 
L 3525 4666 
L 3525 4397 
L 1831 0 
L 1172 0 
L 2766 4134 
L 525 4134 
L 525 4666 
z
" transform="scale(0.015625)"/>
     </defs>
     <use xlink:href="#DejaVuSans-41"/>
     <use xlink:href="#DejaVuSans-37" transform="translate(68.408203 0)"/>
    </g>
   </g>
   <g id="text_25">
    <!-- Restricted -->
    <g transform="translate(168.096058 430.044423) scale(0.08 -0.08)">
     <defs>
      <path id="DejaVuSans-52" d="M 2841 2188 
Q 3044 2119 3236 1894 
Q 3428 1669 3622 1275 
L 4263 0 
L 3584 0 
L 2988 1197 
Q 2756 1666 2539 1819 
Q 2322 1972 1947 1972 
L 1259 1972 
L 1259 0 
L 628 0 
L 628 4666 
L 2053 4666 
Q 2853 4666 3247 4331 
Q 3641 3997 3641 3322 
Q 3641 2881 3436 2590 
Q 3231 2300 2841 2188 
z
M 1259 4147 
L 1259 2491 
L 2053 2491 
Q 2509 2491 2742 2702 
Q 2975 2913 2975 3322 
Q 2975 3731 2742 3939 
Q 2509 4147 2053 4147 
L 1259 4147 
z
" transform="scale(0.015625)"/>
      <path id="DejaVuSans-65" d="M 3597 1894 
L 3597 1613 
L 953 1613 
Q 991 1019 1311 708 
Q 1631 397 2203 397 
Q 2534 397 2845 478 
Q 3156 559 3463 722 
L 3463 178 
Q 3153 47 2828 -22 
Q 2503 -91 2169 -91 
Q 1331 -91 842 396 
Q 353 884 353 1716 
Q 353 2575 817 3079 
Q 1281 3584 2069 3584 
Q 2775 3584 3186 3129 
Q 3597 2675 3597 1894 
z
M 3022 2063 
Q 3016 2534 2758 2815 
Q 2500 3097 2075 3097 
Q 1594 3097 1305 2825 
Q 1016 2553 972 2059 
L 3022 2063 
z
" transform="scale(0.015625)"/>
      <path id="DejaVuSans-73" d="M 2834 3397 
L 2834 2853 
Q 2591 2978 2328 3040 
Q 2066 3103 1784 3103 
Q 1356 3103 1142 2972 
Q 928 2841 928 2578 
Q 928 2378 1081 2264 
Q 1234 2150 1697 2047 
L 1894 2003 
Q 2506 1872 2764 1633 
Q 3022 1394 3022 966 
Q 3022 478 2636 193 
Q 2250 -91 1575 -91 
Q 1294 -91 989 -36 
Q 684 19 347 128 
L 347 722 
Q 666 556 975 473 
Q 1284 391 1588 391 
Q 1994 391 2212 530 
Q 2431 669 2431 922 
Q 2431 1156 2273 1281 
Q 2116 1406 1581 1522 
L 1381 1569 
Q 847 1681 609 1914 
Q 372 2147 372 2553 
Q 372 3047 722 3315 
Q 1072 3584 1716 3584 
Q 2034 3584 2315 3537 
Q 2597 3491 2834 3397 
z
" transform="scale(0.015625)"/>
      <path id="DejaVuSans-74" d="M 1172 4494 
L 1172 3500 
L 2356 3500 
L 2356 3053 
L 1172 3053 
L 1172 1153 
Q 1172 725 1289 603 
Q 1406 481 1766 481 
L 2356 481 
L 2356 0 
L 1766 0 
Q 1100 0 847 248 
Q 594 497 594 1153 
L 594 3053 
L 172 3053 
L 172 3500 
L 594 3500 
L 594 4494 
L 1172 4494 
z
" transform="scale(0.015625)"/>
      <path id="DejaVuSans-72" d="M 2631 2963 
Q 2534 3019 2420 3045 
Q 2306 3072 2169 3072 
Q 1681 3072 1420 2755 
Q 1159 2438 1159 1844 
L 1159 0 
L 581 0 
L 581 3500 
L 1159 3500 
L 1159 2956 
Q 1341 3275 1631 3429 
Q 1922 3584 2338 3584 
Q 2397 3584 2469 3576 
Q 2541 3569 2628 3553 
L 2631 2963 
z
" transform="scale(0.015625)"/>
      <path id="DejaVuSans-69" d="M 603 3500 
L 1178 3500 
L 1178 0 
L 603 0 
L 603 3500 
z
M 603 4863 
L 1178 4863 
L 1178 4134 
L 603 4134 
L 603 4863 
z
" transform="scale(0.015625)"/>
      <path id="DejaVuSans-63" d="M 3122 3366 
L 3122 2828 
Q 2878 2963 2633 3030 
Q 2388 3097 2138 3097 
Q 1578 3097 1268 2742 
Q 959 2388 959 1747 
Q 959 1106 1268 751 
Q 1578 397 2138 397 
Q 2388 397 2633 464 
Q 2878 531 3122 666 
L 3122 134 
Q 2881 22 2623 -34 
Q 2366 -91 2075 -91 
Q 1284 -91 818 406 
Q 353 903 353 1747 
Q 353 2603 823 3093 
Q 1294 3584 2113 3584 
Q 2378 3584 2631 3529 
Q 2884 3475 3122 3366 
z
" transform="scale(0.015625)"/>
      <path id="DejaVuSans-64" d="M 2906 2969 
L 2906 4863 
L 3481 4863 
L 3481 0 
L 2906 0 
L 2906 525 
Q 2725 213 2448 61 
Q 2172 -91 1784 -91 
Q 1150 -91 751 415 
Q 353 922 353 1747 
Q 353 2572 751 3078 
Q 1150 3584 1784 3584 
Q 2172 3584 2448 3432 
Q 2725 3281 2906 2969 
z
M 947 1747 
Q 947 1113 1208 752 
Q 1469 391 1925 391 
Q 2381 391 2643 752 
Q 2906 1113 2906 1747 
Q 2906 2381 2643 2742 
Q 2381 3103 1925 3103 
Q 1469 3103 1208 2742 
Q 947 2381 947 1747 
z
" transform="scale(0.015625)"/>
     </defs>
     <use xlink:href="#DejaVuSans-52"/>
     <use xlink:href="#DejaVuSans-65" transform="translate(64.982422 0)"/>
     <use xlink:href="#DejaVuSans-73" transform="translate(126.505859 0)"/>
     <use xlink:href="#DejaVuSans-74" transform="translate(178.605469 0)"/>
     <use xlink:href="#DejaVuSans-72" transform="translate(217.814453 0)"/>
     <use xlink:href="#DejaVuSans-69" transform="translate(258.927734 0)"/>
     <use xlink:href="#DejaVuSans-63" transform="translate(286.710938 0)"/>
     <use xlink:href="#DejaVuSans-74" transform="translate(341.691406 0)"/>
     <use xlink:href="#DejaVuSans-65" transform="translate(380.900391 0)"/>
     <use xlink:href="#DejaVuSans-64" transform="translate(442.423828 0)"/>
    </g>
   </g>
   <g id="text_26">
    <!-- Risk -->
    <g transform="translate(447.346298 176.105038) scale(0.08 -0.08)">
     <defs>
      <path id="DejaVuSans-6b" d="M 581 4863 
L 1159 4863 
L 1159 1991 
L 2875 3500 
L 3609 3500 
L 1753 1863 
L 3688 0 
L 2938 0 
L 1159 1709 
L 1159 0 
L 581 0 
L 581 4863 
z
" transform="scale(0.015625)"/>
     </defs>
     <use xlink:href="#DejaVuSans-52"/>
     <use xlink:href="#DejaVuSans-69" transform="translate(69.482422 0)"/>
     <use xlink:href="#DejaVuSans-73" transform="translate(97.265625 0)"/>
     <use xlink:href="#DejaVuSans-6b" transform="translate(149.365234 0)"/>
    </g>
   </g>
   <g id="text_27">
    <!-- WP1 -->
    <g transform="translate(153.582708 510.255846) scale(0.09 -0.09)">
     <defs>
      <path id="DejaVuSans-57" d="M 213 4666 
L 850 4666 
L 1831 722 
L 2809 4666 
L 3519 4666 
L 4500 722 
L 5478 4666 
L 6119 4666 
L 4947 0 
L 4153 0 
L 3169 4050 
L 2175 0 
L 1381 0 
L 213 4666 
z
" transform="scale(0.015625)"/>
      <path id="DejaVuSans-50" d="M 1259 4147 
L 1259 2394 
L 2053 2394 
Q 2494 2394 2734 2622 
Q 2975 2850 2975 3272 
Q 2975 3691 2734 3919 
Q 2494 4147 2053 4147 
L 1259 4147 
z
M 628 4666 
L 2053 4666 
Q 2838 4666 3239 4311 
Q 3641 3956 3641 3272 
Q 3641 2581 3239 2228 
Q 2838 1875 2053 1875 
L 1259 1875 
L 1259 0 
L 628 0 
L 628 4666 
z
" transform="scale(0.015625)"/>
     </defs>
     <use xlink:href="#DejaVuSans-57"/>
     <use xlink:href="#DejaVuSans-50" transform="translate(98.876953 0)"/>
     <use xlink:href="#DejaVuSans-31" transform="translate(159.179688 0)"/>
    </g>
   </g>
   <g id="text_28">
    <!-- WP2 -->
    <g transform="translate(554.539631 496.890615) scale(0.09 -0.09)">
     <use xlink:href="#DejaVuSans-57"/>
     <use xlink:href="#DejaVuSans-50" transform="translate(98.876953 0)"/>
     <use xlink:href="#DejaVuSans-32" transform="translate(159.179688 0)"/>
    </g>
   </g>
   <g id="text_29">
    <!-- WP3 -->
    <g transform="translate(541.1744 122.664154) scale(0.09 -0.09)">
     <use xlink:href="#DejaVuSans-57"/>
     <use xlink:href="#DejaVuSans-50" transform="translate(98.876953 0)"/>
     <use xlink:href="#DejaVuSans-33" transform="translate(159.179688 0)"/>
    </g>
   </g>
   <g id="text_30">
    <!-- WP4 -->
    <g transform="translate(166.947938 113.754) scale(0.09 -0.09)">
     <use xlink:href="#DejaVuSans-57"/>
     <use xlink:href="#DejaVuSans-50" transform="translate(98.876953 0)"/>
     <use xlink:href="#DejaVuSans-34" transform="translate(159.179688 0)"/>
    </g>
   </g>
   <g id="text_31">
    <!-- WKR lightweight virtual test field: top-down view -->
    <g transform="translate(197.57875 20.88) scale(0.12 -0.12)">
     <defs>
      <path id="DejaVuSans-4b" d="M 628 4666 
L 1259 4666 
L 1259 2694 
L 3353 4666 
L 4166 4666 
L 1850 2491 
L 4331 0 
L 3500 0 
L 1259 2247 
L 1259 0 
L 628 0 
L 628 4666 
z
" transform="scale(0.015625)"/>
      <path id="DejaVuSans-6c" d="M 603 4863 
L 1178 4863 
L 1178 0 
L 603 0 
L 603 4863 
z
" transform="scale(0.015625)"/>
      <path id="DejaVuSans-67" d="M 2906 1791 
Q 2906 2416 2648 2759 
Q 2391 3103 1925 3103 
Q 1463 3103 1205 2759 
Q 947 2416 947 1791 
Q 947 1169 1205 825 
Q 1463 481 1925 481 
Q 2391 481 2648 825 
Q 2906 1169 2906 1791 
z
M 3481 434 
Q 3481 -459 3084 -895 
Q 2688 -1331 1869 -1331 
Q 1566 -1331 1297 -1286 
Q 1028 -1241 775 -1147 
L 775 -588 
Q 1028 -725 1275 -790 
Q 1522 -856 1778 -856 
Q 2344 -856 2625 -561 
Q 2906 -266 2906 331 
L 2906 616 
Q 2728 306 2450 153 
Q 2172 0 1784 0 
Q 1141 0 747 490 
Q 353 981 353 1791 
Q 353 2603 747 3093 
Q 1141 3584 1784 3584 
Q 2172 3584 2450 3431 
Q 2728 3278 2906 2969 
L 2906 3500 
L 3481 3500 
L 3481 434 
z
" transform="scale(0.015625)"/>
      <path id="DejaVuSans-68" d="M 3513 2113 
L 3513 0 
L 2938 0 
L 2938 2094 
Q 2938 2591 2744 2837 
Q 2550 3084 2163 3084 
Q 1697 3084 1428 2787 
Q 1159 2491 1159 1978 
L 1159 0 
L 581 0 
L 581 4863 
L 1159 4863 
L 1159 2956 
Q 1366 3272 1645 3428 
Q 1925 3584 2291 3584 
Q 2894 3584 3203 3211 
Q 3513 2838 3513 2113 
z
" transform="scale(0.015625)"/>
      <path id="DejaVuSans-77" d="M 269 3500 
L 844 3500 
L 1563 769 
L 2278 3500 
L 2956 3500 
L 3675 769 
L 4391 3500 
L 4966 3500 
L 4050 0 
L 3372 0 
L 2619 2869 
L 1863 0 
L 1184 0 
L 269 3500 
z
" transform="scale(0.015625)"/>
      <path id="DejaVuSans-76" d="M 191 3500 
L 800 3500 
L 1894 563 
L 2988 3500 
L 3597 3500 
L 2284 0 
L 1503 0 
L 191 3500 
z
" transform="scale(0.015625)"/>
      <path id="DejaVuSans-75" d="M 544 1381 
L 544 3500 
L 1119 3500 
L 1119 1403 
Q 1119 906 1312 657 
Q 1506 409 1894 409 
Q 2359 409 2629 706 
Q 2900 1003 2900 1516 
L 2900 3500 
L 3475 3500 
L 3475 0 
L 2900 0 
L 2900 538 
Q 2691 219 2414 64 
Q 2138 -91 1772 -91 
Q 1169 -91 856 284 
Q 544 659 544 1381 
z
M 1991 3584 
L 1991 3584 
z
" transform="scale(0.015625)"/>
      <path id="DejaVuSans-61" d="M 2194 1759 
Q 1497 1759 1228 1600 
Q 959 1441 959 1056 
Q 959 750 1161 570 
Q 1363 391 1709 391 
Q 2188 391 2477 730 
Q 2766 1069 2766 1631 
L 2766 1759 
L 2194 1759 
z
M 3341 1997 
L 3341 0 
L 2766 0 
L 2766 531 
Q 2569 213 2275 61 
Q 1981 -91 1556 -91 
Q 1019 -91 701 211 
Q 384 513 384 1019 
Q 384 1609 779 1909 
Q 1175 2209 1959 2209 
L 2766 2209 
L 2766 2266 
Q 2766 2663 2505 2880 
Q 2244 3097 1772 3097 
Q 1472 3097 1187 3025 
Q 903 2953 641 2809 
L 641 3341 
Q 956 3463 1253 3523 
Q 1550 3584 1831 3584 
Q 2591 3584 2966 3190 
Q 3341 2797 3341 1997 
z
" transform="scale(0.015625)"/>
      <path id="DejaVuSans-66" d="M 2375 4863 
L 2375 4384 
L 1825 4384 
Q 1516 4384 1395 4259 
Q 1275 4134 1275 3809 
L 1275 3500 
L 2222 3500 
L 2222 3053 
L 1275 3053 
L 1275 0 
L 697 0 
L 697 3053 
L 147 3053 
L 147 3500 
L 697 3500 
L 697 3744 
Q 697 4328 969 4595 
Q 1241 4863 1831 4863 
L 2375 4863 
z
" transform="scale(0.015625)"/>
      <path id="DejaVuSans-3a" d="M 750 794 
L 1409 794 
L 1409 0 
L 750 0 
L 750 794 
z
M 750 3309 
L 1409 3309 
L 1409 2516 
L 750 2516 
L 750 3309 
z
" transform="scale(0.015625)"/>
      <path id="DejaVuSans-6f" d="M 1959 3097 
Q 1497 3097 1228 2736 
Q 959 2375 959 1747 
Q 959 1119 1226 758 
Q 1494 397 1959 397 
Q 2419 397 2687 759 
Q 2956 1122 2956 1747 
Q 2956 2369 2687 2733 
Q 2419 3097 1959 3097 
z
M 1959 3584 
Q 2709 3584 3137 3096 
Q 3566 2609 3566 1747 
Q 3566 888 3137 398 
Q 2709 -91 1959 -91 
Q 1206 -91 779 398 
Q 353 888 353 1747 
Q 353 2609 779 3096 
Q 1206 3584 1959 3584 
z
" transform="scale(0.015625)"/>
      <path id="DejaVuSans-70" d="M 1159 525 
L 1159 -1331 
L 581 -1331 
L 581 3500 
L 1159 3500 
L 1159 2969 
Q 1341 3281 1617 3432 
Q 1894 3584 2278 3584 
Q 2916 3584 3314 3078 
Q 3713 2572 3713 1747 
Q 3713 922 3314 415 
Q 2916 -91 2278 -91 
Q 1894 -91 1617 61 
Q 1341 213 1159 525 
z
M 3116 1747 
Q 3116 2381 2855 2742 
Q 2594 3103 2138 3103 
Q 1681 3103 1420 2742 
Q 1159 2381 1159 1747 
Q 1159 1113 1420 752 
Q 1681 391 2138 391 
Q 2594 391 2855 752 
Q 3116 1113 3116 1747 
z
" transform="scale(0.015625)"/>
      <path id="DejaVuSans-2d" d="M 313 2009 
L 1997 2009 
L 1997 1497 
L 313 1497 
L 313 2009 
z
" transform="scale(0.015625)"/>
      <path id="DejaVuSans-6e" d="M 3513 2113 
L 3513 0 
L 2938 0 
L 2938 2094 
Q 2938 2591 2744 2837 
Q 2550 3084 2163 3084 
Q 1697 3084 1428 2787 
Q 1159 2491 1159 1978 
L 1159 0 
L 581 0 
L 581 3500 
L 1159 3500 
L 1159 2956 
Q 1366 3272 1645 3428 
Q 1925 3584 2291 3584 
Q 2894 3584 3203 3211 
Q 3513 2838 3513 2113 
z
" transform="scale(0.015625)"/>
     </defs>
     <use xlink:href="#DejaVuSans-57"/>
     <use xlink:href="#DejaVuSans-4b" transform="translate(98.876953 0)"/>
     <use xlink:href="#DejaVuSans-52" transform="translate(164.453125 0)"/>
     <use xlink:href="#DejaVuSans-20" transform="translate(233.935547 0)"/>
     <use xlink:href="#DejaVuSans-6c" transform="translate(265.722656 0)"/>
     <use xlink:href="#DejaVuSans-69" transform="translate(293.505859 0)"/>
     <use xlink:href="#DejaVuSans-67" transform="translate(321.289062 0)"/>
     <use xlink:href="#DejaVuSans-68" transform="translate(384.765625 0)"/>
     <use xlink:href="#DejaVuSans-74" transform="translate(448.144531 0)"/>
     <use xlink:href="#DejaVuSans-77" transform="translate(487.353516 0)"/>
     <use xlink:href="#DejaVuSans-65" transform="translate(569.140625 0)"/>
     <use xlink:href="#DejaVuSans-69" transform="translate(630.664062 0)"/>
     <use xlink:href="#DejaVuSans-67" transform="translate(658.447266 0)"/>
     <use xlink:href="#DejaVuSans-68" transform="translate(721.923828 0)"/>
     <use xlink:href="#DejaVuSans-74" transform="translate(785.302734 0)"/>
     <use xlink:href="#DejaVuSans-20" transform="translate(824.511719 0)"/>
     <use xlink:href="#DejaVuSans-76" transform="translate(856.298828 0)"/>
     <use xlink:href="#DejaVuSans-69" transform="translate(915.478516 0)"/>
     <use xlink:href="#DejaVuSans-72" transform="translate(943.261719 0)"/>
     <use xlink:href="#DejaVuSans-74" transform="translate(984.375 0)"/>
     <use xlink:href="#DejaVuSans-75" transform="translate(1023.583984 0)"/>
     <use xlink:href="#DejaVuSans-61" transform="translate(1086.962891 0)"/>
     <use xlink:href="#DejaVuSans-6c" transform="translate(1148.242188 0)"/>
     <use xlink:href="#DejaVuSans-20" transform="translate(1176.025391 0)"/>
     <use xlink:href="#DejaVuSans-74" transform="translate(1207.8125 0)"/>
     <use xlink:href="#DejaVuSans-65" transform="translate(1247.021484 0)"/>
     <use xlink:href="#DejaVuSans-73" transform="translate(1308.544922 0)"/>
     <use xlink:href="#DejaVuSans-74" transform="translate(1360.644531 0)"/>
     <use xlink:href="#DejaVuSans-20" transform="translate(1399.853516 0)"/>
     <use xlink:href="#DejaVuSans-66" transform="translate(1431.640625 0)"/>
     <use xlink:href="#DejaVuSans-69" transform="translate(1466.845703 0)"/>
     <use xlink:href="#DejaVuSans-65" transform="translate(1494.628906 0)"/>
     <use xlink:href="#DejaVuSans-6c" transform="translate(1556.152344 0)"/>
     <use xlink:href="#DejaVuSans-64" transform="translate(1583.935547 0)"/>
     <use xlink:href="#DejaVuSans-3a" transform="translate(1647.412109 0)"/>
     <use xlink:href="#DejaVuSans-20" transform="translate(1681.103516 0)"/>
     <use xlink:href="#DejaVuSans-74" transform="translate(1712.890625 0)"/>
     <use xlink:href="#DejaVuSans-6f" transform="translate(1752.099609 0)"/>
     <use xlink:href="#DejaVuSans-70" transform="translate(1813.28125 0)"/>
     <use xlink:href="#DejaVuSans-2d" transform="translate(1876.757812 0)"/>
     <use xlink:href="#DejaVuSans-64" transform="translate(1912.841797 0)"/>
     <use xlink:href="#DejaVuSans-6f" transform="translate(1976.318359 0)"/>
     <use xlink:href="#DejaVuSans-77" transform="translate(2037.5 0)"/>
     <use xlink:href="#DejaVuSans-6e" transform="translate(2119.287109 0)"/>
     <use xlink:href="#DejaVuSans-20" transform="translate(2182.666016 0)"/>
     <use xlink:href="#DejaVuSans-76" transform="translate(2214.453125 0)"/>
     <use xlink:href="#DejaVuSans-69" transform="translate(2273.632812 0)"/>
     <use xlink:href="#DejaVuSans-65" transform="translate(2301.416016 0)"/>
     <use xlink:href="#DejaVuSans-77" transform="translate(2362.939453 0)"/>
    </g>
   </g>
   <g id="legend_1">
    <g id="patch_27">
     <path d="M 531.0925 91.9925 
L 628.24 91.9925 
Q 629.84 91.9925 629.84 90.3925 
L 629.84 32.48 
Q 629.84 30.88 628.24 30.88 
L 531.0925 30.88 
Q 529.4925 30.88 529.4925 32.48 
L 529.4925 90.3925 
Q 529.4925 91.9925 531.0925 91.9925 
z
" style="fill: #ffffff; opacity: 0.8; stroke: #cccccc; stroke-linejoin: miter"/>
    </g>
    <g id="patch_28">
     <path d="M 532.6925 40.15875 
L 548.6925 40.15875 
L 548.6925 34.55875 
L 532.6925 34.55875 
z
" style="fill: #dce7df; stroke: #4f6f5f; stroke-width: 1.5; stroke-linejoin: miter"/>
    </g>
    <g id="text_32">
     <!-- Mission area -->
     <g transform="translate(555.0925 40.15875) scale(0.08 -0.08)">
      <defs>
       <path id="DejaVuSans-4d" d="M 628 4666 
L 1569 4666 
L 2759 1491 
L 3956 4666 
L 4897 4666 
L 4897 0 
L 4281 0 
L 4281 4097 
L 3078 897 
L 2444 897 
L 1241 4097 
L 1241 0 
L 628 0 
L 628 4666 
z
" transform="scale(0.015625)"/>
      </defs>
      <use xlink:href="#DejaVuSans-4d"/>
      <use xlink:href="#DejaVuSans-69" transform="translate(86.279297 0)"/>
      <use xlink:href="#DejaVuSans-73" transform="translate(114.0625 0)"/>
      <use xlink:href="#DejaVuSans-73" transform="translate(166.162109 0)"/>
      <use xlink:href="#DejaVuSans-69" transform="translate(218.261719 0)"/>
      <use xlink:href="#DejaVuSans-6f" transform="translate(246.044922 0)"/>
      <use xlink:href="#DejaVuSans-6e" transform="translate(307.226562 0)"/>
      <use xlink:href="#DejaVuSans-20" transform="translate(370.605469 0)"/>
      <use xlink:href="#DejaVuSans-61" transform="translate(402.392578 0)"/>
      <use xlink:href="#DejaVuSans-72" transform="translate(463.671875 0)"/>
      <use xlink:href="#DejaVuSans-65" transform="translate(502.535156 0)"/>
      <use xlink:href="#DejaVuSans-61" transform="translate(564.058594 0)"/>
     </g>
    </g>
    <g id="patch_29">
     <path d="M 532.6925 51.90125 
L 548.6925 51.90125 
L 548.6925 46.30125 
L 532.6925 46.30125 
z
" style="fill: #666a70; stroke: #33363a; stroke-linejoin: miter"/>
    </g>
    <g id="text_33">
     <!-- Static obstacle -->
     <g transform="translate(555.0925 51.90125) scale(0.08 -0.08)">
      <defs>
       <path id="DejaVuSans-53" d="M 3425 4513 
L 3425 3897 
Q 3066 4069 2747 4153 
Q 2428 4238 2131 4238 
Q 1616 4238 1336 4038 
Q 1056 3838 1056 3469 
Q 1056 3159 1242 3001 
Q 1428 2844 1947 2747 
L 2328 2669 
Q 3034 2534 3370 2195 
Q 3706 1856 3706 1288 
Q 3706 609 3251 259 
Q 2797 -91 1919 -91 
Q 1588 -91 1214 -16 
Q 841 59 441 206 
L 441 856 
Q 825 641 1194 531 
Q 1563 422 1919 422 
Q 2459 422 2753 634 
Q 3047 847 3047 1241 
Q 3047 1584 2836 1778 
Q 2625 1972 2144 2069 
L 1759 2144 
Q 1053 2284 737 2584 
Q 422 2884 422 3419 
Q 422 4038 858 4394 
Q 1294 4750 2059 4750 
Q 2388 4750 2728 4690 
Q 3069 4631 3425 4513 
z
" transform="scale(0.015625)"/>
       <path id="DejaVuSans-62" d="M 3116 1747 
Q 3116 2381 2855 2742 
Q 2594 3103 2138 3103 
Q 1681 3103 1420 2742 
Q 1159 2381 1159 1747 
Q 1159 1113 1420 752 
Q 1681 391 2138 391 
Q 2594 391 2855 752 
Q 3116 1113 3116 1747 
z
M 1159 2969 
Q 1341 3281 1617 3432 
Q 1894 3584 2278 3584 
Q 2916 3584 3314 3078 
Q 3713 2572 3713 1747 
Q 3713 922 3314 415 
Q 2916 -91 2278 -91 
Q 1894 -91 1617 61 
Q 1341 213 1159 525 
L 1159 0 
L 581 0 
L 581 4863 
L 1159 4863 
L 1159 2969 
z
" transform="scale(0.015625)"/>
      </defs>
      <use xlink:href="#DejaVuSans-53"/>
      <use xlink:href="#DejaVuSans-74" transform="translate(63.476562 0)"/>
      <use xlink:href="#DejaVuSans-61" transform="translate(102.685547 0)"/>
      <use xlink:href="#DejaVuSans-74" transform="translate(163.964844 0)"/>
      <use xlink:href="#DejaVuSans-69" transform="translate(203.173828 0)"/>
      <use xlink:href="#DejaVuSans-63" transform="translate(230.957031 0)"/>
      <use xlink:href="#DejaVuSans-20" transform="translate(285.9375 0)"/>
      <use xlink:href="#DejaVuSans-6f" transform="translate(317.724609 0)"/>
      <use xlink:href="#DejaVuSans-62" transform="translate(378.90625 0)"/>
      <use xlink:href="#DejaVuSans-73" transform="translate(442.382812 0)"/>
      <use xlink:href="#DejaVuSans-74" transform="translate(494.482422 0)"/>
      <use xlink:href="#DejaVuSans-61" transform="translate(533.691406 0)"/>
      <use xlink:href="#DejaVuSans-63" transform="translate(594.970703 0)"/>
      <use xlink:href="#DejaVuSans-6c" transform="translate(649.951172 0)"/>
      <use xlink:href="#DejaVuSans-65" transform="translate(677.734375 0)"/>
     </g>
    </g>
    <g id="patch_30">
     <path d="M 532.6925 63.64375 
L 548.6925 63.64375 
L 548.6925 58.04375 
L 532.6925 58.04375 
z
" style="fill: #d9534f; stroke: #8c2d2a; stroke-linejoin: miter"/>
    </g>
    <g id="text_34">
     <!-- Dynamic obstacle -->
     <g transform="translate(555.0925 63.64375) scale(0.08 -0.08)">
      <defs>
       <path id="DejaVuSans-44" d="M 1259 4147 
L 1259 519 
L 2022 519 
Q 2988 519 3436 956 
Q 3884 1394 3884 2338 
Q 3884 3275 3436 3711 
Q 2988 4147 2022 4147 
L 1259 4147 
z
M 628 4666 
L 1925 4666 
Q 3281 4666 3915 4102 
Q 4550 3538 4550 2338 
Q 4550 1131 3912 565 
Q 3275 0 1925 0 
L 628 0 
L 628 4666 
z
" transform="scale(0.015625)"/>
      </defs>
      <use xlink:href="#DejaVuSans-44"/>
      <use xlink:href="#DejaVuSans-79" transform="translate(77.001953 0)"/>
      <use xlink:href="#DejaVuSans-6e" transform="translate(136.181641 0)"/>
      <use xlink:href="#DejaVuSans-61" transform="translate(199.560547 0)"/>
      <use xlink:href="#DejaVuSans-6d" transform="translate(260.839844 0)"/>
      <use xlink:href="#DejaVuSans-69" transform="translate(358.251953 0)"/>
      <use xlink:href="#DejaVuSans-63" transform="translate(386.035156 0)"/>
      <use xlink:href="#DejaVuSans-20" transform="translate(441.015625 0)"/>
      <use xlink:href="#DejaVuSans-6f" transform="translate(472.802734 0)"/>
      <use xlink:href="#DejaVuSans-62" transform="translate(533.984375 0)"/>
      <use xlink:href="#DejaVuSans-73" transform="translate(597.460938 0)"/>
      <use xlink:href="#DejaVuSans-74" transform="translate(649.560547 0)"/>
      <use xlink:href="#DejaVuSans-61" transform="translate(688.769531 0)"/>
      <use xlink:href="#DejaVuSans-63" transform="translate(750.048828 0)"/>
      <use xlink:href="#DejaVuSans-6c" transform="translate(805.029297 0)"/>
      <use xlink:href="#DejaVuSans-65" transform="translate(832.8125 0)"/>
     </g>
    </g>
    <g id="patch_31">
     <path d="M 532.6925 75.38625 
L 548.6925 75.38625 
L 548.6925 69.78625 
L 532.6925 69.78625 
z
" style="fill: #cf3b31; opacity: 0.35; stroke: #8a1f18; stroke-linejoin: miter"/>
    </g>
    <g id="text_35">
     <!-- Restricted zone -->
     <g transform="translate(555.0925 75.38625) scale(0.08 -0.08)">
      <defs>
       <path id="DejaVuSans-7a" d="M 353 3500 
L 3084 3500 
L 3084 2975 
L 922 459 
L 3084 459 
L 3084 0 
L 275 0 
L 275 525 
L 2438 3041 
L 353 3041 
L 353 3500 
z
" transform="scale(0.015625)"/>
      </defs>
      <use xlink:href="#DejaVuSans-52"/>
      <use xlink:href="#DejaVuSans-65" transform="translate(64.982422 0)"/>
      <use xlink:href="#DejaVuSans-73" transform="translate(126.505859 0)"/>
      <use xlink:href="#DejaVuSans-74" transform="translate(178.605469 0)"/>
      <use xlink:href="#DejaVuSans-72" transform="translate(217.814453 0)"/>
      <use xlink:href="#DejaVuSans-69" transform="translate(258.927734 0)"/>
      <use xlink:href="#DejaVuSans-63" transform="translate(286.710938 0)"/>
      <use xlink:href="#DejaVuSans-74" transform="translate(341.691406 0)"/>
      <use xlink:href="#DejaVuSans-65" transform="translate(380.900391 0)"/>
      <use xlink:href="#DejaVuSans-64" transform="translate(442.423828 0)"/>
      <use xlink:href="#DejaVuSans-20" transform="translate(505.900391 0)"/>
      <use xlink:href="#DejaVuSans-7a" transform="translate(537.6875 0)"/>
      <use xlink:href="#DejaVuSans-6f" transform="translate(590.177734 0)"/>
      <use xlink:href="#DejaVuSans-6e" transform="translate(651.359375 0)"/>
      <use xlink:href="#DejaVuSans-65" transform="translate(714.738281 0)"/>
     </g>
    </g>
    <g id="patch_32">
     <path d="M 532.6925 87.12875 
L 548.6925 87.12875 
L 548.6925 81.52875 
L 532.6925 81.52875 
z
" style="fill: #e0a824; opacity: 0.4; stroke: #9a6d12; stroke-linejoin: miter"/>
    </g>
    <g id="text_36">
     <!-- Risk zone -->
     <g transform="translate(555.0925 87.12875) scale(0.08 -0.08)">
      <use xlink:href="#DejaVuSans-52"/>
      <use xlink:href="#DejaVuSans-69" transform="translate(69.482422 0)"/>
      <use xlink:href="#DejaVuSans-73" transform="translate(97.265625 0)"/>
      <use xlink:href="#DejaVuSans-6b" transform="translate(149.365234 0)"/>
      <use xlink:href="#DejaVuSans-20" transform="translate(207.275391 0)"/>
      <use xlink:href="#DejaVuSans-7a" transform="translate(239.0625 0)"/>
      <use xlink:href="#DejaVuSans-6f" transform="translate(291.552734 0)"/>
      <use xlink:href="#DejaVuSans-6e" transform="translate(352.734375 0)"/>
      <use xlink:href="#DejaVuSans-65" transform="translate(416.113281 0)"/>
     </g>
    </g>
   </g>
  </g>
 </g>
 <defs>
  <clipPath id="p8d6d42fe3f">
   <rect x="54.68" y="26.88" width="579.16" height="579.16"/>
  </clipPath>
 </defs>
</svg>
