<?xml version="1.0" encoding="utf-8" standalone="no"?>
<!DOCTYPE svg PUBLIC "-//W3C//DTD SVG 1.1//EN"
  "http://www.w3.org/Graphics/SVG/1.1/DTD/svg11.dtd">
<svg xmlns:xlink="http://www.w3.org/1999/xlink" width="630.570937pt" height="639.034375pt" viewBox="0 0 630.570937 639.034375" xmlns="http://www.w3.org/2000/svg" version="1.1">
 <metadata>
  <rdf:RDF xmlns:dc="http://purl.org/dc/elements/1.1/" xmlns:cc="http://creativecommons.org/ns#" xmlns:rdf="http://www.w3.org/1999/02/22-rdf-syntax-ns#">
   <cc:Work>
    <dc:type rdf:resource="http://purl.org/dc/dcmitype/StillImage"/>
    <dc:date>2026-05-06T20:50:46.003063</dc:date>
    <dc:format>image/svg+xml</dc:format>
    <dc:creator>
     <cc:Agent>
      <dc:title>Matplotlib v3.9.4, https://matplotlib.org/</dc:title>
     </cc:Agent>
    </dc:creator>
   </cc:Work>
  </rdf:RDF>
 </metadata>
 <defs>
  <style type="text/css">*{stroke-linejoin: round; stroke-linecap: butt}</style>
 </defs>
 <g id="figure_1">
  <g id="patch_1">
   <path d="M 0 639.034375 
L 630.570937 639.034375 
L 630.570937 0 
L 0 0 
z
" style="fill: #ffffff"/>
  </g>
  <g id="axes_1">
   <g id="patch_2">
    <path d="M 44.210938 601.478125 
L 623.370937 601.478125 
L 623.370937 22.318125 
L 44.210938 22.318125 
z
" style="fill: #ffffff"/>
   </g>
   <g id="patch_3">
    <path d="M 66.486322 579.20274 
L 601.095553 579.20274 
L 601.095553 44.59351 
L 66.486322 44.59351 
z
" clip-path="url(#p6ccd4cabaa)" style="fill: #dce7df; stroke: #4f6f5f; stroke-width: 1.5; stroke-linejoin: miter"/>
   </g>
   <g id="patch_4">
    <path d="M 253.599553 317.244217 
C 255.017353 317.244217 256.377275 316.680919 257.379811 315.678383 
C 258.382347 314.675847 258.945645 313.315925 258.945645 311.898125 
C 258.945645 310.480325 258.382347 309.120403 257.379811 308.117867 
C 256.377275 307.115331 255.017353 306.552033 253.599553 306.552033 
C 252.181753 306.552033 250.821831 307.115331 249.819295 308.117867 
C 248.816759 309.120403 248.253461 310.480325 248.253461 311.898125 
C 248.253461 313.315925 248.816759 314.675847 249.819295 315.678383 
C 250.821831 316.680919 252.181753 317.244217 253.599553 317.244217 
z
" clip-path="url(#p6ccd4cabaa)" style="fill: #1f77b4; stroke: #ffffff; stroke-width: 0.8; stroke-linejoin: miter"/>
   </g>
   <g id="patch_5">
    <path d="M 275.874937 272.693448 
C 277.292738 272.693448 278.652659 272.13015 279.655196 271.127614 
C 280.657732 270.125078 281.22103 268.765156 281.22103 267.347356 
C 281.22103 265.929556 280.657732 264.569634 279.655196 263.567098 
C 278.652659 262.564561 277.292738 262.001263 275.874937 262.001263 
C 274.457137 262.001263 273.097216 262.564561 272.094679 263.567098 
C 271.092143 264.569634 270.528845 265.929556 270.528845 267.347356 
C 270.528845 268.765156 271.092143 270.125078 272.094679 271.127614 
C 273.097216 272.13015 274.457137 272.693448 275.874937 272.693448 
z
" clip-path="url(#p6ccd4cabaa)" style="fill: #1f77b4; stroke: #ffffff; stroke-width: 0.8; stroke-linejoin: miter"/>
   </g>
   <g id="patch_6">
    <path d="M 311.515553 245.962987 
C 312.933353 245.962987 314.293275 245.399689 315.295811 244.397152 
C 316.298347 243.394616 316.861645 242.034694 316.861645 240.616894 
C 316.861645 239.199094 316.298347 237.839172 315.295811 236.836636 
C 314.293275 235.8341 312.933353 235.270802 311.515553 235.270802 
C 310.097753 235.270802 308.737831 235.8341 307.735295 236.836636 
C 306.732759 237.839172 306.169461 239.199094 306.169461 240.616894 
C 306.169461 242.034694 306.732759 243.394616 307.735295 244.397152 
C 308.737831 245.399689 310.097753 245.962987 311.515553 245.962987 
z
" clip-path="url(#p6ccd4cabaa)" style="fill: #1f77b4; stroke: #ffffff; stroke-width: 0.8; stroke-linejoin: miter"/>
   </g>
   <g id="patch_7">
    <path d="M 356.066322 245.962987 
C 357.484122 245.962987 358.844044 245.399689 359.84658 244.397152 
C 360.849116 243.394616 361.412414 242.034694 361.412414 240.616894 
C 361.412414 239.199094 360.849116 237.839172 359.84658 236.836636 
C 358.844044 235.8341 357.484122 235.270802 356.066322 235.270802 
C 354.648522 235.270802 353.2886 235.8341 352.286064 236.836636 
C 351.283528 237.839172 350.72023 239.199094 350.72023 240.616894 
C 350.72023 242.034694 351.283528 243.394616 352.286064 244.397152 
C 353.2886 245.399689 354.648522 245.962987 356.066322 245.962987 
z
" clip-path="url(#p6ccd4cabaa)" style="fill: #1f77b4; stroke: #ffffff; stroke-width: 0.8; stroke-linejoin: miter"/>
   </g>
   <g id="patch_8">
    <path d="M 391.706937 272.693448 
C 393.124738 272.693448 394.484659 272.13015 395.487196 271.127614 
C 396.489732 270.125078 397.05303 268.765156 397.05303 267.347356 
C 397.05303 265.929556 396.489732 264.569634 395.487196 263.567098 
C 394.484659 262.564561 393.124738 262.001263 391.706937 262.001263 
C 390.289137 262.001263 388.929216 262.564561 387.926679 263.567098 
C 386.924143 264.569634 386.360845 265.929556 386.360845 267.347356 
C 386.360845 268.765156 386.924143 270.125078 387.926679 271.127614 
C 388.929216 272.13015 390.289137 272.693448 391.706937 272.693448 
z
" clip-path="url(#p6ccd4cabaa)" style="fill: #1f77b4; stroke: #ffffff; stroke-width: 0.8; stroke-linejoin: miter"/>
   </g>
   <g id="patch_9">
    <path d="M 413.982322 317.244217 
C 415.400122 317.244217 416.760044 316.680919 417.76258 315.678383 
C 418.765116 314.675847 419.328414 313.315925 419.328414 311.898125 
C 419.328414 310.480325 418.765116 309.120403 417.76258 308.117867 
C 416.760044 307.115331 415.400122 306.552033 413.982322 306.552033 
C 412.564522 306.552033 411.2046 307.115331 410.202064 308.117867 
C 409.199528 309.120403 408.63623 310.480325 408.63623 311.898125 
C 408.63623 313.315925 409.199528 314.675847 410.202064 315.678383 
C 411.2046 316.680919 412.564522 317.244217 413.982322 317.244217 
z
" clip-path="url(#p6ccd4cabaa)" style="fill: #2ca02c; stroke: #ffffff; stroke-width: 0.8; stroke-linejoin: miter"/>
   </g>
   <g id="patch_10">
    <path d="M 369.431553 370.70514 
C 370.849353 370.70514 372.209275 370.141842 373.211811 369.139306 
C 374.214347 368.13677 374.777645 366.776848 374.777645 365.359048 
C 374.777645 363.941248 374.214347 362.581326 373.211811 361.57879 
C 372.209275 360.576254 370.849353 360.012956 369.431553 360.012956 
C 368.013753 360.012956 366.653831 360.576254 365.651295 361.57879 
C 364.648759 362.581326 364.085461 363.941248 364.085461 365.359048 
C 364.085461 366.776848 364.648759 368.13677 365.651295 369.139306 
C 366.653831 370.141842 368.013753 370.70514 369.431553 370.70514 
z
" clip-path="url(#p6ccd4cabaa)" style="fill: #2ca02c; stroke: #ffffff; stroke-width: 0.8; stroke-linejoin: miter"/>
   </g>
   <g id="patch_11">
    <path d="M 298.150322 370.70514 
C 299.568122 370.70514 300.928044 370.141842 301.93058 369.139306 
C 302.933116 368.13677 303.496414 366.776848 303.496414 365.359048 
C 303.496414 363.941248 302.933116 362.581326 301.93058 361.57879 
C 300.928044 360.576254 299.568122 360.012956 298.150322 360.012956 
C 296.732522 360.012956 295.3726 360.576254 294.370064 361.57879 
C 293.367528 362.581326 292.80423 363.941248 292.80423 365.359048 
C 292.80423 366.776848 293.367528 368.13677 294.370064 369.139306 
C 295.3726 370.141842 296.732522 370.70514 298.150322 370.70514 
z
" clip-path="url(#p6ccd4cabaa)" style="fill: #2ca02c; stroke: #ffffff; stroke-width: 0.8; stroke-linejoin: miter"/>
   </g>
   <g id="patch_12">
    <path d="M 204.593707 240.616894 
L 240.234322 240.616894 
L 240.234322 187.155971 
L 204.593707 187.155971 
z
" clip-path="url(#p6ccd4cabaa)" style="fill: #666a70; stroke: #33363a; stroke-linejoin: miter"/>
   </g>
   <g id="patch_13">
    <path d="M 356.066322 345.311202 
L 400.617091 345.311202 
L 400.617091 314.125663 
L 356.066322 314.125663 
z
" clip-path="url(#p6ccd4cabaa)" style="fill: #666a70; stroke: #33363a; stroke-linejoin: miter"/>
   </g>
   <g id="patch_14">
    <path d="M 465.215707 256.209663 
L 496.401245 256.209663 
L 496.401245 207.203817 
L 465.215707 207.203817 
z
" clip-path="url(#p6ccd4cabaa)" style="fill: #666a70; stroke: #33363a; stroke-linejoin: miter"/>
   </g>
   <g id="patch_15">
    <path d="M 289.240168 450.896525 
C 290.657969 450.896525 292.01789 450.333227 293.020426 449.330691 
C 294.022963 448.328155 294.586261 446.968233 294.586261 445.550433 
C 294.586261 444.132632 294.022963 442.772711 293.020426 441.770175 
C 292.01789 440.767638 290.657969 440.20434 289.240168 440.20434 
C 287.822368 440.20434 286.462446 440.767638 285.45991 441.770175 
C 284.457374 442.772711 283.894076 444.132632 283.894076 445.550433 
C 283.894076 446.968233 284.457374 448.328155 285.45991 449.330691 
C 286.462446 450.333227 287.822368 450.896525 289.240168 450.896525 
z
" clip-path="url(#p6ccd4cabaa)" style="fill: #d9534f; stroke: #8c2d2a; stroke-linejoin: miter"/>
   </g>
   <g id="patch_16">
    <path d="M 458.533091 415.25591 
C 459.950892 415.25591 461.310813 414.692612 462.313349 413.690075 
C 463.315886 412.687539 463.879184 411.327618 463.879184 409.909817 
C 463.879184 408.492017 463.315886 407.132095 462.313349 406.129559 
C 461.310813 405.127023 459.950892 404.563725 458.533091 404.563725 
C 457.115291 404.563725 455.755369 405.127023 454.752833 406.129559 
C 453.750297 407.132095 453.186999 408.492017 453.186999 409.909817 
C 453.186999 411.327618 453.750297 412.687539 454.752833 413.690075 
C 455.755369 414.692612 457.115291 415.25591 458.533091 415.25591 
z
" clip-path="url(#p6ccd4cabaa)" style="fill: #d9534f; stroke: #8c2d2a; stroke-linejoin: miter"/>
   </g>
   <g id="patch_17">
    <path d="M 137.767553 454.460587 
L 217.958937 454.460587 
L 217.958937 392.08951 
L 137.767553 392.08951 
z
" clip-path="url(#p6ccd4cabaa)" style="fill: #cf3b31; opacity: 0.35; stroke: #8a1f18; stroke-linejoin: miter"/>
   </g>
   <g id="patch_18">
    <path d="M 396.162014 196.066125 
L 494.173707 196.066125 
L 494.173707 142.605202 
L 396.162014 142.605202 
z
" clip-path="url(#p6ccd4cabaa)" style="fill: #e0a824; opacity: 0.4; stroke: #9a6d12; stroke-linejoin: miter"/>
   </g>
   <g id="patch_19">
    <path d="M 133.312476 520.395725 
C 135.439176 520.395725 137.479059 519.550778 138.982863 518.046974 
C 140.486667 516.543169 141.331614 514.503287 141.331614 512.376587 
C 141.331614 510.249886 140.486667 508.210004 138.982863 506.706199 
C 137.479059 505.202395 135.439176 504.357448 133.312476 504.357448 
C 131.185776 504.357448 129.145893 505.202395 127.642089 506.706199 
C 126.138285 508.210004 125.293337 510.249886 125.293337 512.376587 
C 125.293337 514.503287 126.138285 516.543169 127.642089 518.046974 
C 129.145893 519.550778 131.185776 520.395725 133.312476 520.395725 
z
" clip-path="url(#p6ccd4cabaa)" style="fill: #4c78d8; stroke: #ffffff; stroke-linejoin: miter"/>
   </g>
   <g id="patch_20">
    <path d="M 534.269399 507.030494 
C 536.396099 507.030494 538.435982 506.185547 539.939786 504.681743 
C 541.44359 503.177939 542.288537 501.138056 542.288537 499.011356 
C 542.288537 496.884655 541.44359 494.844773 539.939786 493.340969 
C 538.435982 491.837164 536.396099 490.992217 534.269399 490.992217 
C 532.142699 490.992217 530.102816 491.837164 528.599012 493.340969 
C 527.095208 494.844773 526.250261 496.884655 526.250261 499.011356 
C 526.250261 501.138056 527.095208 503.177939 528.599012 504.681743 
C 530.102816 506.185547 532.142699 507.030494 534.269399 507.030494 
z
" clip-path="url(#p6ccd4cabaa)" style="fill: #4c78d8; stroke: #ffffff; stroke-linejoin: miter"/>
   </g>
   <g id="patch_21">
    <path d="M 520.904168 132.804033 
C 523.030869 132.804033 525.070751 131.959086 526.574555 130.455281 
C 528.07836 128.951477 528.923307 126.911595 528.923307 124.784894 
C 528.923307 122.658194 528.07836 120.618311 526.574555 119.114507 
C 525.070751 117.610703 523.030869 116.765756 520.904168 116.765756 
C 518.777468 116.765756 516.737585 117.610703 515.233781 119.114507 
C 513.729977 120.618311 512.88503 122.658194 512.88503 124.784894 
C 512.88503 126.911595 513.729977 128.951477 515.233781 130.455281 
C 516.737585 131.959086 518.777468 132.804033 520.904168 132.804033 
z
" clip-path="url(#p6ccd4cabaa)" style="fill: #4c78d8; stroke: #ffffff; stroke-linejoin: miter"/>
   </g>
   <g id="patch_22">
    <path d="M 146.677707 123.893879 
C 148.804407 123.893879 150.84429 123.048932 152.348094 121.545128 
C 153.851898 120.041323 154.696845 118.001441 154.696845 115.87474 
C 154.696845 113.74804 153.851898 111.708157 152.348094 110.204353 
C 150.84429 108.700549 148.804407 107.855602 146.677707 107.855602 
C 144.551006 107.855602 142.511124 108.700549 141.00732 110.204353 
C 139.503515 111.708157 138.658568 113.74804 138.658568 115.87474 
C 138.658568 118.001441 139.503515 120.041323 141.00732 121.545128 
C 142.511124 123.048932 144.551006 123.893879 146.677707 123.893879 
z
" clip-path="url(#p6ccd4cabaa)" style="fill: #4c78d8; stroke: #ffffff; stroke-linejoin: miter"/>
   </g>
   <g id="matplotlib.axis_1">
    <g id="xtick_1">
     <g id="line2d_1">
      <path d="M 66.486322 601.478125 
L 66.486322 22.318125 
" clip-path="url(#p6ccd4cabaa)" style="fill: none; stroke: #b0b0b0; stroke-opacity: 0.25; stroke-width: 0.8; stroke-linecap: square"/>
     </g>
     <g id="line2d_2">
      <defs>
       <path id="mf7ef30e251" d="M 0 0 
L 0 3.5 
" style="stroke: #000000; stroke-width: 0.8"/>
      </defs>
      <g>
       <use xlink:href="#mf7ef30e251" x="66.486322" y="601.478125" style="stroke: #000000; stroke-width: 0.8"/>
      </g>
     </g>
     <g id="text_1">
      <!-- -60 -->
      <g transform="translate(58.319916 616.076562) scale(0.1 -0.1)">
       <defs>
        <path id="DejaVuSans-2d" d="M 313 2009 
L 1997 2009 
L 1997 1497 
L 313 1497 
L 313 2009 
z
" transform="scale(0.015625)"/>
        <path id="DejaVuSans-36" d="M 2113 2584 
Q 1688 2584 1439 2293 
Q 1191 2003 1191 1497 
Q 1191 994 1439 701 
Q 1688 409 2113 409 
Q 2538 409 2786 701 
Q 3034 994 3034 1497 
Q 3034 2003 2786 2293 
Q 2538 2584 2113 2584 
z
M 3366 4563 
L 3366 3988 
Q 3128 4100 2886 4159 
Q 2644 4219 2406 4219 
Q 1781 4219 1451 3797 
Q 1122 3375 1075 2522 
Q 1259 2794 1537 2939 
Q 1816 3084 2150 3084 
Q 2853 3084 3261 2657 
Q 3669 2231 3669 1497 
Q 3669 778 3244 343 
Q 2819 -91 2113 -91 
Q 1303 -91 875 529 
Q 447 1150 447 2328 
Q 447 3434 972 4092 
Q 1497 4750 2381 4750 
Q 2619 4750 2861 4703 
Q 3103 4656 3366 4563 
z
" transform="scale(0.015625)"/>
        <path id="DejaVuSans-30" d="M 2034 4250 
Q 1547 4250 1301 3770 
Q 1056 3291 1056 2328 
Q 1056 1369 1301 889 
Q 1547 409 2034 409 
Q 2525 409 2770 889 
Q 3016 1369 3016 2328 
Q 3016 3291 2770 3770 
Q 2525 4250 2034 4250 
z
M 2034 4750 
Q 2819 4750 3233 4129 
Q 3647 3509 3647 2328 
Q 3647 1150 3233 529 
Q 2819 -91 2034 -91 
Q 1250 -91 836 529 
Q 422 1150 422 2328 
Q 422 3509 836 4129 
Q 1250 4750 2034 4750 
z
" transform="scale(0.015625)"/>
       </defs>
       <use xlink:href="#DejaVuSans-2d"/>
       <use xlink:href="#DejaVuSans-36" x="36.083984"/>
       <use xlink:href="#DejaVuSans-30" x="99.707031"/>
      </g>
     </g>
    </g>
    <g id="xtick_2">
     <g id="line2d_3">
      <path d="M 155.587861 601.478125 
L 155.587861 22.318125 
" clip-path="url(#p6ccd4cabaa)" style="fill: none; stroke: #b0b0b0; stroke-opacity: 0.25; stroke-width: 0.8; stroke-linecap: square"/>
     </g>
     <g id="line2d_4">
      <g>
       <use xlink:href="#mf7ef30e251" x="155.587861" y="601.478125" style="stroke: #000000; stroke-width: 0.8"/>
      </g>
     </g>
     <g id="text_2">
      <!-- -40 -->
      <g transform="translate(147.421454 616.076562) scale(0.1 -0.1)">
       <defs>
        <path id="DejaVuSans-34" d="M 2419 4116 
L 825 1625 
L 2419 1625 
L 2419 4116 
z
M 2253 4666 
L 3047 4666 
L 3047 1625 
L 3713 1625 
L 3713 1100 
L 3047 1100 
L 3047 0 
L 2419 0 
L 2419 1100 
L 313 1100 
L 313 1709 
L 2253 4666 
z
" transform="scale(0.015625)"/>
       </defs>
       <use xlink:href="#DejaVuSans-2d"/>
       <use xlink:href="#DejaVuSans-34" x="36.083984"/>
       <use xlink:href="#DejaVuSans-30" x="99.707031"/>
      </g>
     </g>
    </g>
    <g id="xtick_3">
     <g id="line2d_5">
      <path d="M 244.689399 601.478125 
L 244.689399 22.318125 
" clip-path="url(#p6ccd4cabaa)" style="fill: none; stroke: #b0b0b0; stroke-opacity: 0.25; stroke-width: 0.8; stroke-linecap: square"/>
     </g>
     <g id="line2d_6">
      <g>
       <use xlink:href="#mf7ef30e251" x="244.689399" y="601.478125" style="stroke: #000000; stroke-width: 0.8"/>
      </g>
     </g>
     <g id="text_3">
      <!-- -20 -->
      <g transform="translate(236.522993 616.076562) scale(0.1 -0.1)">
       <defs>
        <path id="DejaVuSans-32" d="M 1228 531 
L 3431 531 
L 3431 0 
L 469 0 
L 469 531 
Q 828 903 1448 1529 
Q 2069 2156 2228 2338 
Q 2531 2678 2651 2914 
Q 2772 3150 2772 3378 
Q 2772 3750 2511 3984 
Q 2250 4219 1831 4219 
Q 1534 4219 1204 4116 
Q 875 4013 500 3803 
L 500 4441 
Q 881 4594 1212 4672 
Q 1544 4750 1819 4750 
Q 2544 4750 2975 4387 
Q 3406 4025 3406 3419 
Q 3406 3131 3298 2873 
Q 3191 2616 2906 2266 
Q 2828 2175 2409 1742 
Q 1991 1309 1228 531 
z
" transform="scale(0.015625)"/>
       </defs>
       <use xlink:href="#DejaVuSans-2d"/>
       <use xlink:href="#DejaVuSans-32" x="36.083984"/>
       <use xlink:href="#DejaVuSans-30" x="99.707031"/>
      </g>
     </g>
    </g>
    <g id="xtick_4">
     <g id="line2d_7">
      <path d="M 333.790937 601.478125 
L 333.790937 22.318125 
" clip-path="url(#p6ccd4cabaa)" style="fill: none; stroke: #b0b0b0; stroke-opacity: 0.25; stroke-width: 0.8; stroke-linecap: square"/>
     </g>
     <g id="line2d_8">
      <g>
       <use xlink:href="#mf7ef30e251" x="333.790937" y="601.478125" style="stroke: #000000; stroke-width: 0.8"/>
      </g>
     </g>
     <g id="text_4">
      <!-- 0 -->
      <g transform="translate(330.609688 616.076562) scale(0.1 -0.1)">
       <use xlink:href="#DejaVuSans-30"/>
      </g>
     </g>
    </g>
    <g id="xtick_5">
     <g id="line2d_9">
      <path d="M 422.892476 601.478125 
L 422.892476 22.318125 
" clip-path="url(#p6ccd4cabaa)" style="fill: none; stroke: #b0b0b0; stroke-opacity: 0.25; stroke-width: 0.8; stroke-linecap: square"/>
     </g>
     <g id="line2d_10">
      <g>
       <use xlink:href="#mf7ef30e251" x="422.892476" y="601.478125" style="stroke: #000000; stroke-width: 0.8"/>
      </g>
     </g>
     <g id="text_5">
      <!-- 20 -->
      <g transform="translate(416.529976 616.076562) scale(0.1 -0.1)">
       <use xlink:href="#DejaVuSans-32"/>
       <use xlink:href="#DejaVuSans-30" x="63.623047"/>
      </g>
     </g>
    </g>
    <g id="xtick_6">
     <g id="line2d_11">
      <path d="M 511.994014 601.478125 
L 511.994014 22.318125 
" clip-path="url(#p6ccd4cabaa)" style="fill: none; stroke: #b0b0b0; stroke-opacity: 0.25; stroke-width: 0.8; stroke-linecap: square"/>
     </g>
     <g id="line2d_12">
      <g>
       <use xlink:href="#mf7ef30e251" x="511.994014" y="601.478125" style="stroke: #000000; stroke-width: 0.8"/>
      </g>
     </g>
     <g id="text_6">
      <!-- 40 -->
      <g transform="translate(505.631514 616.076562) scale(0.1 -0.1)">
       <use xlink:href="#DejaVuSans-34"/>
       <use xlink:href="#DejaVuSans-30" x="63.623047"/>
      </g>
     </g>
    </g>
    <g id="xtick_7">
     <g id="line2d_13">
      <path d="M 601.095553 601.478125 
L 601.095553 22.318125 
" clip-path="url(#p6ccd4cabaa)" style="fill: none; stroke: #b0b0b0; stroke-opacity: 0.25; stroke-width: 0.8; stroke-linecap: square"/>
     </g>
     <g id="line2d_14">
      <g>
       <use xlink:href="#mf7ef30e251" x="601.095553" y="601.478125" style="stroke: #000000; stroke-width: 0.8"/>
      </g>
     </g>
     <g id="text_7">
      <!-- 60 -->
      <g transform="translate(594.733053 616.076562) scale(0.1 -0.1)">
       <use xlink:href="#DejaVuSans-36"/>
       <use xlink:href="#DejaVuSans-30" x="63.623047"/>
      </g>
     </g>
    </g>
    <g id="text_8">
     <!-- x, м -->
     <g transform="translate(323.881562 629.754687) scale(0.1 -0.1)">
      <defs>
       <path id="DejaVuSans-78" d="M 3513 3500 
L 2247 1797 
L 3578 0 
L 2900 0 
L 1881 1375 
L 863 0 
L 184 0 
L 1544 1831 
L 300 3500 
L 978 3500 
L 1906 2253 
L 2834 3500 
L 3513 3500 
z
" transform="scale(0.015625)"/>
       <path id="DejaVuSans-2c" d="M 750 794 
L 1409 794 
L 1409 256 
L 897 -744 
L 494 -744 
L 750 256 
L 750 794 
z
" transform="scale(0.015625)"/>
       <path id="DejaVuSans-20" transform="scale(0.015625)"/>
       <path id="DejaVuSans-43c" d="M 581 3500 
L 1422 3500 
L 2416 1156 
L 3413 3500 
L 4247 3500 
L 4247 0 
L 3669 0 
L 3669 2950 
L 2703 672 
L 2128 672 
L 1159 2950 
L 1159 0 
L 581 0 
L 581 3500 
z
" transform="scale(0.015625)"/>
      </defs>
      <use xlink:href="#DejaVuSans-78"/>
      <use xlink:href="#DejaVuSans-2c" x="59.179688"/>
      <use xlink:href="#DejaVuSans-20" x="90.966797"/>
      <use xlink:href="#DejaVuSans-43c" x="122.753906"/>
     </g>
    </g>
   </g>
   <g id="matplotlib.axis_2">
    <g id="ytick_1">
     <g id="line2d_15">
      <path d="M 44.210938 579.20274 
L 623.370937 579.20274 
" clip-path="url(#p6ccd4cabaa)" style="fill: none; stroke: #b0b0b0; stroke-opacity: 0.25; stroke-width: 0.8; stroke-linecap: square"/>
     </g>
     <g id="line2d_16">
      <defs>
       <path id="m5d001f4cde" d="M 0 0 
L -3.5 0 
" style="stroke: #000000; stroke-width: 0.8"/>
      </defs>
      <g>
       <use xlink:href="#m5d001f4cde" x="44.210938" y="579.20274" style="stroke: #000000; stroke-width: 0.8"/>
      </g>
     </g>
     <g id="text_9">
      <!-- -60 -->
      <g transform="translate(20.878125 583.001959) scale(0.1 -0.1)">
       <use xlink:href="#DejaVuSans-2d"/>
       <use xlink:href="#DejaVuSans-36" x="36.083984"/>
       <use xlink:href="#DejaVuSans-30" x="99.707031"/>
      </g>
     </g>
    </g>
    <g id="ytick_2">
     <g id="line2d_17">
      <path d="M 44.210938 490.101202 
L 623.370937 490.101202 
" clip-path="url(#p6ccd4cabaa)" style="fill: none; stroke: #b0b0b0; stroke-opacity: 0.25; stroke-width: 0.8; stroke-linecap: square"/>
     </g>
     <g id="line2d_18">
      <g>
       <use xlink:href="#m5d001f4cde" x="44.210938" y="490.101202" style="stroke: #000000; stroke-width: 0.8"/>
      </g>
     </g>
     <g id="text_10">
      <!-- -40 -->
      <g transform="translate(20.878125 493.900421) scale(0.1 -0.1)">
       <use xlink:href="#DejaVuSans-2d"/>
       <use xlink:href="#DejaVuSans-34" x="36.083984"/>
       <use xlink:href="#DejaVuSans-30" x="99.707031"/>
      </g>
     </g>
    </g>
    <g id="ytick_3">
     <g id="line2d_19">
      <path d="M 44.210938 400.999663 
L 623.370937 400.999663 
" clip-path="url(#p6ccd4cabaa)" style="fill: none; stroke: #b0b0b0; stroke-opacity: 0.25; stroke-width: 0.8; stroke-linecap: square"/>
     </g>
     <g id="line2d_20">
      <g>
       <use xlink:href="#m5d001f4cde" x="44.210938" y="400.999663" style="stroke: #000000; stroke-width: 0.8"/>
      </g>
     </g>
     <g id="text_11">
      <!-- -20 -->
      <g transform="translate(20.878125 404.798882) scale(0.1 -0.1)">
       <use xlink:href="#DejaVuSans-2d"/>
       <use xlink:href="#DejaVuSans-32" x="36.083984"/>
       <use xlink:href="#DejaVuSans-30" x="99.707031"/>
      </g>
     </g>
    </g>
    <g id="ytick_4">
     <g id="line2d_21">
      <path d="M 44.210938 311.898125 
L 623.370937 311.898125 
" clip-path="url(#p6ccd4cabaa)" style="fill: none; stroke: #b0b0b0; stroke-opacity: 0.25; stroke-width: 0.8; stroke-linecap: square"/>
     </g>
     <g id="line2d_22">
      <g>
       <use xlink:href="#m5d001f4cde" x="44.210938" y="311.898125" style="stroke: #000000; stroke-width: 0.8"/>
      </g>
     </g>
     <g id="text_12">
      <!-- 0 -->
      <g transform="translate(30.848437 315.697344) scale(0.1 -0.1)">
       <use xlink:href="#DejaVuSans-30"/>
      </g>
     </g>
    </g>
    <g id="ytick_5">
     <g id="line2d_23">
      <path d="M 44.210938 222.796587 
L 623.370937 222.796587 
" clip-path="url(#p6ccd4cabaa)" style="fill: none; stroke: #b0b0b0; stroke-opacity: 0.25; stroke-width: 0.8; stroke-linecap: square"/>
     </g>
     <g id="line2d_24">
      <g>
       <use xlink:href="#m5d001f4cde" x="44.210938" y="222.796587" style="stroke: #000000; stroke-width: 0.8"/>
      </g>
     </g>
     <g id="text_13">
      <!-- 20 -->
      <g transform="translate(24.485937 226.595805) scale(0.1 -0.1)">
       <use xlink:href="#DejaVuSans-32"/>
       <use xlink:href="#DejaVuSans-30" x="63.623047"/>
      </g>
     </g>
    </g>
    <g id="ytick_6">
     <g id="line2d_25">
      <path d="M 44.210938 133.695048 
L 623.370937 133.695048 
" clip-path="url(#p6ccd4cabaa)" style="fill: none; stroke: #b0b0b0; stroke-opacity: 0.25; stroke-width: 0.8; stroke-linecap: square"/>
     </g>
     <g id="line2d_26">
      <g>
       <use xlink:href="#m5d001f4cde" x="44.210938" y="133.695048" style="stroke: #000000; stroke-width: 0.8"/>
      </g>
     </g>
     <g id="text_14">
      <!-- 40 -->
      <g transform="translate(24.485937 137.494267) scale(0.1 -0.1)">
       <use xlink:href="#DejaVuSans-34"/>
       <use xlink:href="#DejaVuSans-30" x="63.623047"/>
      </g>
     </g>
    </g>
    <g id="ytick_7">
     <g id="line2d_27">
      <path d="M 44.210938 44.59351 
L 623.370937 44.59351 
" clip-path="url(#p6ccd4cabaa)" style="fill: none; stroke: #b0b0b0; stroke-opacity: 0.25; stroke-width: 0.8; stroke-linecap: square"/>
     </g>
     <g id="line2d_28">
      <g>
       <use xlink:href="#m5d001f4cde" x="44.210938" y="44.59351" style="stroke: #000000; stroke-width: 0.8"/>
      </g>
     </g>
     <g id="text_15">
      <!-- 60 -->
      <g transform="translate(24.485937 48.392728) scale(0.1 -0.1)">
       <use xlink:href="#DejaVuSans-36"/>
       <use xlink:href="#DejaVuSans-30" x="63.623047"/>
      </g>
     </g>
    </g>
    <g id="text_16">
     <!-- y, м -->
     <g transform="translate(14.798438 321.8075) rotate(-90) scale(0.1 -0.1)">
      <defs>
       <path id="DejaVuSans-79" d="M 2059 -325 
Q 1816 -950 1584 -1140 
Q 1353 -1331 966 -1331 
L 506 -1331 
L 506 -850 
L 844 -850 
Q 1081 -850 1212 -737 
Q 1344 -625 1503 -206 
L 1606 56 
L 191 3500 
L 800 3500 
L 1894 763 
L 2988 3500 
L 3597 3500 
L 2059 -325 
z
" transform="scale(0.015625)"/>
      </defs>
      <use xlink:href="#DejaVuSans-79"/>
      <use xlink:href="#DejaVuSans-2c" x="59.179688"/>
      <use xlink:href="#DejaVuSans-20" x="90.966797"/>
      <use xlink:href="#DejaVuSans-43c" x="122.753906"/>
     </g>
    </g>
   </g>
   <g id="patch_23">
    <path d="M 44.210938 601.478125 
L 44.210938 22.318125 
" style="fill: none; stroke: #000000; stroke-width: 0.8; stroke-linejoin: miter; stroke-linecap: square"/>
   </g>
   <g id="patch_24">
    <path d="M 623.370937 601.478125 
L 623.370937 22.318125 
" style="fill: none; stroke: #000000; stroke-width: 0.8; stroke-linejoin: miter; stroke-linecap: square"/>
   </g>
   <g id="patch_25">
    <path d="M 44.210937 601.478125 
L 623.370938 601.478125 
" style="fill: none; stroke: #000000; stroke-width: 0.8; stroke-linejoin: miter; stroke-linecap: square"/>
   </g>
   <g id="patch_26">
    <path d="M 44.210937 22.318125 
L 623.370938 22.318125 
" style="fill: none; stroke: #000000; stroke-width: 0.8; stroke-linejoin: miter; stroke-linecap: square"/>
   </g>
   <g id="text_17">
    <!-- А0 -->
    <g transform="translate(260.282168 305.21551) scale(0.08 -0.08)">
     <defs>
      <path id="DejaVuSans-410" d="M 2188 4044 
L 1331 1722 
L 3047 1722 
L 2188 4044 
z
M 1831 4666 
L 2547 4666 
L 4325 0 
L 3669 0 
L 3244 1197 
L 1141 1197 
L 716 0 
L 50 0 
L 1831 4666 
z
" transform="scale(0.015625)"/>
     </defs>
     <use xlink:href="#DejaVuSans-410"/>
     <use xlink:href="#DejaVuSans-30" x="68.408203"/>
    </g>
   </g>
   <g id="text_18">
    <!-- А1 -->
    <g transform="translate(282.557553 260.66474) scale(0.08 -0.08)">
     <defs>
      <path id="DejaVuSans-31" d="M 794 531 
L 1825 531 
L 1825 4091 
L 703 3866 
L 703 4441 
L 1819 4666 
L 2450 4666 
L 2450 531 
L 3481 531 
L 3481 0 
L 794 0 
L 794 531 
z
" transform="scale(0.015625)"/>
     </defs>
     <use xlink:href="#DejaVuSans-410"/>
     <use xlink:href="#DejaVuSans-31" x="68.408203"/>
    </g>
   </g>
   <g id="text_19">
    <!-- А2 -->
    <g transform="translate(318.198168 233.934279) scale(0.08 -0.08)">
     <use xlink:href="#DejaVuSans-410"/>
     <use xlink:href="#DejaVuSans-32" x="68.408203"/>
    </g>
   </g>
   <g id="text_20">
    <!-- А3 -->
    <g transform="translate(362.748938 233.934279) scale(0.08 -0.08)">
     <defs>
      <path id="DejaVuSans-33" d="M 2597 2516 
Q 3050 2419 3304 2112 
Q 3559 1806 3559 1356 
Q 3559 666 3084 287 
Q 2609 -91 1734 -91 
Q 1441 -91 1130 -33 
Q 819 25 488 141 
L 488 750 
Q 750 597 1062 519 
Q 1375 441 1716 441 
Q 2309 441 2620 675 
Q 2931 909 2931 1356 
Q 2931 1769 2642 2001 
Q 2353 2234 1838 2234 
L 1294 2234 
L 1294 2753 
L 1863 2753 
Q 2328 2753 2575 2939 
Q 2822 3125 2822 3475 
Q 2822 3834 2567 4026 
Q 2313 4219 1838 4219 
Q 1578 4219 1281 4162 
Q 984 4106 628 3988 
L 628 4550 
Q 988 4650 1302 4700 
Q 1616 4750 1894 4750 
Q 2613 4750 3031 4423 
Q 3450 4097 3450 3541 
Q 3450 3153 3228 2886 
Q 3006 2619 2597 2516 
z
" transform="scale(0.015625)"/>
     </defs>
     <use xlink:href="#DejaVuSans-410"/>
     <use xlink:href="#DejaVuSans-33" x="68.408203"/>
    </g>
   </g>
   <g id="text_21">
    <!-- А4 -->
    <g transform="translate(398.389553 260.66474) scale(0.08 -0.08)">
     <use xlink:href="#DejaVuSans-410"/>
     <use xlink:href="#DejaVuSans-34" x="68.408203"/>
    </g>
   </g>
   <g id="text_22">
    <!-- А5 -->
    <g transform="translate(420.664938 305.21551) scale(0.08 -0.08)">
     <defs>
      <path id="DejaVuSans-35" d="M 691 4666 
L 3169 4666 
L 3169 4134 
L 1269 4134 
L 1269 2991 
Q 1406 3038 1543 3061 
Q 1681 3084 1819 3084 
Q 2600 3084 3056 2656 
Q 3513 2228 3513 1497 
Q 3513 744 3044 326 
Q 2575 -91 1722 -91 
Q 1428 -91 1123 -41 
Q 819 9 494 109 
L 494 744 
Q 775 591 1075 516 
Q 1375 441 1709 441 
Q 2250 441 2565 725 
Q 2881 1009 2881 1497 
Q 2881 1984 2565 2268 
Q 2250 2553 1709 2553 
Q 1456 2553 1204 2497 
Q 953 2441 691 2322 
L 691 4666 
z
" transform="scale(0.015625)"/>
     </defs>
     <use xlink:href="#DejaVuSans-410"/>
     <use xlink:href="#DejaVuSans-35" x="68.408203"/>
    </g>
   </g>
   <g id="text_23">
    <!-- А6 -->
    <g transform="translate(376.114168 358.676433) scale(0.08 -0.08)">
     <use xlink:href="#DejaVuSans-410"/>
     <use xlink:href="#DejaVuSans-36" x="68.408203"/>
    </g>
   </g>
   <g id="text_24">
    <!-- А7 -->
    <g transform="translate(304.832937 358.676433) scale(0.08 -0.08)">
     <defs>
      <path id="DejaVuSans-37" d="M 525 4666 
L 3525 4666 
L 3525 4397 
L 1831 0 
L 1172 0 
L 2766 4134 
L 525 4134 
L 525 4666 
z
" transform="scale(0.015625)"/>
     </defs>
     <use xlink:href="#DejaVuSans-410"/>
     <use xlink:href="#DejaVuSans-37" x="68.408203"/>
    </g>
   </g>
   <g id="text_25">
    <!-- Запрещено -->
    <g transform="translate(153.940745 425.482548) scale(0.08 -0.08)">
     <defs>
      <path id="DejaVuSans-417" d="M 1828 4750 
Q 2597 4750 3084 4423 
Q 3572 4097 3572 3541 
Q 3572 3153 3350 2886 
Q 3128 2619 2719 2516 
Q 3172 2419 3426 2112 
Q 3681 1806 3681 1356 
Q 3681 638 3126 273 
Q 2572 -91 1828 -91 
Q 1447 -91 1003 12 
Q 559 116 422 203 
L 422 853 
Q 900 575 1164 508 
Q 1428 441 1816 441 
Q 2403 441 2728 666 
Q 3053 891 3053 1356 
Q 3053 1769 2764 2001 
Q 2475 2234 1866 2234 
L 1228 2234 
L 1228 2753 
L 1891 2753 
Q 2450 2753 2697 2939 
Q 2944 3125 2944 3475 
Q 2944 3834 2689 4026 
Q 2434 4219 1816 4219 
Q 1397 4219 1253 4181 
Q 1109 4144 469 3903 
L 469 4519 
Q 822 4644 1190 4697 
Q 1559 4750 1828 4750 
z
" transform="scale(0.015625)"/>
      <path id="DejaVuSans-430" d="M 2194 1759 
Q 1497 1759 1228 1600 
Q 959 1441 959 1056 
Q 959 750 1161 570 
Q 1363 391 1709 391 
Q 2188 391 2477 730 
Q 2766 1069 2766 1631 
L 2766 1759 
L 2194 1759 
z
M 3341 1997 
L 3341 0 
L 2766 0 
L 2766 531 
Q 2569 213 2275 61 
Q 1981 -91 1556 -91 
Q 1019 -91 701 211 
Q 384 513 384 1019 
Q 384 1609 779 1909 
Q 1175 2209 1959 2209 
L 2766 2209 
L 2766 2266 
Q 2766 2663 2505 2880 
Q 2244 3097 1772 3097 
Q 1472 3097 1187 3025 
Q 903 2953 641 2809 
L 641 3341 
Q 956 3463 1253 3523 
Q 1550 3584 1831 3584 
Q 2591 3584 2966 3190 
Q 3341 2797 3341 1997 
z
" transform="scale(0.015625)"/>
      <path id="DejaVuSans-43f" d="M 3603 3500 
L 3603 0 
L 3025 0 
L 3025 3041 
L 1159 3041 
L 1159 0 
L 581 0 
L 581 3500 
L 3603 3500 
z
" transform="scale(0.015625)"/>
      <path id="DejaVuSans-440" d="M 1159 525 
L 1159 -1331 
L 581 -1331 
L 581 3500 
L 1159 3500 
L 1159 2969 
Q 1341 3281 1617 3432 
Q 1894 3584 2278 3584 
Q 2916 3584 3314 3078 
Q 3713 2572 3713 1747 
Q 3713 922 3314 415 
Q 2916 -91 2278 -91 
Q 1894 -91 1617 61 
Q 1341 213 1159 525 
z
M 3116 1747 
Q 3116 2381 2855 2742 
Q 2594 3103 2138 3103 
Q 1681 3103 1420 2742 
Q 1159 2381 1159 1747 
Q 1159 1113 1420 752 
Q 1681 391 2138 391 
Q 2594 391 2855 752 
Q 3116 1113 3116 1747 
z
" transform="scale(0.015625)"/>
      <path id="DejaVuSans-435" d="M 3597 1894 
L 3597 1613 
L 953 1613 
Q 991 1019 1311 708 
Q 1631 397 2203 397 
Q 2534 397 2845 478 
Q 3156 559 3463 722 
L 3463 178 
Q 3153 47 2828 -22 
Q 2503 -91 2169 -91 
Q 1331 -91 842 396 
Q 353 884 353 1716 
Q 353 2575 817 3079 
Q 1281 3584 2069 3584 
Q 2775 3584 3186 3129 
Q 3597 2675 3597 1894 
z
M 3022 2063 
Q 3016 2534 2758 2815 
Q 2500 3097 2075 3097 
Q 1594 3097 1305 2825 
Q 1016 2553 972 2059 
L 3022 2063 
z
" transform="scale(0.015625)"/>
      <path id="DejaVuSans-449" d="M 5275 0 
L 581 0 
L 581 3500 
L 1159 3500 
L 1159 459 
L 2638 459 
L 2638 3500 
L 3216 3500 
L 3216 459 
L 4697 459 
L 4697 3500 
L 5275 3500 
L 5275 459 
L 5734 459 
L 5734 -884 
L 5275 -884 
L 5275 0 
z
" transform="scale(0.015625)"/>
      <path id="DejaVuSans-43d" d="M 581 3500 
L 1159 3500 
L 1159 2072 
L 3025 2072 
L 3025 3500 
L 3603 3500 
L 3603 0 
L 3025 0 
L 3025 1613 
L 1159 1613 
L 1159 0 
L 581 0 
L 581 3500 
z
" transform="scale(0.015625)"/>
      <path id="DejaVuSans-43e" d="M 1959 3097 
Q 1497 3097 1228 2736 
Q 959 2375 959 1747 
Q 959 1119 1226 758 
Q 1494 397 1959 397 
Q 2419 397 2687 759 
Q 2956 1122 2956 1747 
Q 2956 2369 2687 2733 
Q 2419 3097 1959 3097 
z
M 1959 3584 
Q 2709 3584 3137 3096 
Q 3566 2609 3566 1747 
Q 3566 888 3137 398 
Q 2709 -91 1959 -91 
Q 1206 -91 779 398 
Q 353 888 353 1747 
Q 353 2609 779 3096 
Q 1206 3584 1959 3584 
z
" transform="scale(0.015625)"/>
     </defs>
     <use xlink:href="#DejaVuSans-417"/>
     <use xlink:href="#DejaVuSans-430" x="64.111328"/>
     <use xlink:href="#DejaVuSans-43f" x="125.390625"/>
     <use xlink:href="#DejaVuSans-440" x="190.771484"/>
     <use xlink:href="#DejaVuSans-435" x="254.248047"/>
     <use xlink:href="#DejaVuSans-449" x="315.771484"/>
     <use xlink:href="#DejaVuSans-435" x="409.960938"/>
     <use xlink:href="#DejaVuSans-43d" x="471.484375"/>
     <use xlink:href="#DejaVuSans-43e" x="536.865234"/>
    </g>
   </g>
   <g id="text_26">
    <!-- Риск -->
    <g transform="translate(435.540986 171.543163) scale(0.08 -0.08)">
     <defs>
      <path id="DejaVuSans-420" d="M 1259 4147 
L 1259 2394 
L 2053 2394 
Q 2494 2394 2734 2622 
Q 2975 2850 2975 3272 
Q 2975 3691 2734 3919 
Q 2494 4147 2053 4147 
L 1259 4147 
z
M 628 4666 
L 2053 4666 
Q 2838 4666 3239 4311 
Q 3641 3956 3641 3272 
Q 3641 2581 3239 2228 
Q 2838 1875 2053 1875 
L 1259 1875 
L 1259 0 
L 628 0 
L 628 4666 
z
" transform="scale(0.015625)"/>
      <path id="DejaVuSans-438" d="M 3578 3500 
L 3578 0 
L 3006 0 
L 3006 2809 
L 1319 0 
L 581 0 
L 581 3500 
L 1153 3500 
L 1153 697 
L 2838 3500 
L 3578 3500 
z
" transform="scale(0.015625)"/>
      <path id="DejaVuSans-441" d="M 3122 3366 
L 3122 2828 
Q 2878 2963 2633 3030 
Q 2388 3097 2138 3097 
Q 1578 3097 1268 2742 
Q 959 2388 959 1747 
Q 959 1106 1268 751 
Q 1578 397 2138 397 
Q 2388 397 2633 464 
Q 2878 531 3122 666 
L 3122 134 
Q 2881 22 2623 -34 
Q 2366 -91 2075 -91 
Q 1284 -91 818 406 
Q 353 903 353 1747 
Q 353 2603 823 3093 
Q 1294 3584 2113 3584 
Q 2378 3584 2631 3529 
Q 2884 3475 3122 3366 
z
" transform="scale(0.015625)"/>
      <path id="DejaVuSans-43a" d="M 581 3500 
L 1153 3500 
L 1153 1856 
L 2775 3500 
L 3481 3500 
L 2144 2147 
L 3653 0 
L 3009 0 
L 1769 1766 
L 1153 1141 
L 1153 0 
L 581 0 
L 581 3500 
z
" transform="scale(0.015625)"/>
     </defs>
     <use xlink:href="#DejaVuSans-420"/>
     <use xlink:href="#DejaVuSans-438" x="60.302734"/>
     <use xlink:href="#DejaVuSans-441" x="125.292969"/>
     <use xlink:href="#DejaVuSans-43a" x="180.273438"/>
    </g>
   </g>
   <g id="text_27">
    <!-- Т1 -->
    <g transform="translate(143.113645 505.693971) scale(0.09 -0.09)">
     <defs>
      <path id="DejaVuSans-422" d="M -19 4666 
L 3928 4666 
L 3928 4134 
L 2272 4134 
L 2272 0 
L 1638 0 
L 1638 4134 
L -19 4134 
L -19 4666 
z
" transform="scale(0.015625)"/>
     </defs>
     <use xlink:href="#DejaVuSans-422"/>
     <use xlink:href="#DejaVuSans-31" x="61.083984"/>
    </g>
   </g>
   <g id="text_28">
    <!-- Т2 -->
    <g transform="translate(544.070568 492.32874) scale(0.09 -0.09)">
     <use xlink:href="#DejaVuSans-422"/>
     <use xlink:href="#DejaVuSans-32" x="61.083984"/>
    </g>
   </g>
   <g id="text_29">
    <!-- Т3 -->
    <g transform="translate(530.705338 118.102279) scale(0.09 -0.09)">
     <use xlink:href="#DejaVuSans-422"/>
     <use xlink:href="#DejaVuSans-33" x="61.083984"/>
    </g>
   </g>
   <g id="text_30">
    <!-- Т4 -->
    <g transform="translate(156.478876 109.192125) scale(0.09 -0.09)">
     <use xlink:href="#DejaVuSans-422"/>
     <use xlink:href="#DejaVuSans-34" x="61.083984"/>
    </g>
   </g>
   <g id="text_31">
    <!-- Виртуальный полигон: вид сверху -->
    <g transform="translate(224.47375 16.318125) scale(0.12 -0.12)">
     <defs>
      <path id="DejaVuSans-412" d="M 1259 2228 
L 1259 519 
L 2272 519 
Q 2781 519 3026 730 
Q 3272 941 3272 1375 
Q 3272 1813 3026 2020 
Q 2781 2228 2272 2228 
L 1259 2228 
z
M 1259 4147 
L 1259 2741 
L 2194 2741 
Q 2656 2741 2882 2914 
Q 3109 3088 3109 3444 
Q 3109 3797 2882 3972 
Q 2656 4147 2194 4147 
L 1259 4147 
z
M 628 4666 
L 2241 4666 
Q 2963 4666 3353 4366 
Q 3744 4066 3744 3513 
Q 3744 3084 3544 2831 
Q 3344 2578 2956 2516 
Q 3422 2416 3680 2098 
Q 3938 1781 3938 1306 
Q 3938 681 3513 340 
Q 3088 0 2303 0 
L 628 0 
L 628 4666 
z
" transform="scale(0.015625)"/>
      <path id="DejaVuSans-442" d="M 188 3500 
L 3541 3500 
L 3541 3041 
L 2147 3041 
L 2147 0 
L 1581 0 
L 1581 3041 
L 188 3041 
L 188 3500 
z
" transform="scale(0.015625)"/>
      <path id="DejaVuSans-443" d="M 2059 -325 
Q 1816 -950 1584 -1140 
Q 1353 -1331 966 -1331 
L 506 -1331 
L 506 -850 
L 844 -850 
Q 1081 -850 1212 -737 
Q 1344 -625 1503 -206 
L 1606 56 
L 191 3500 
L 800 3500 
L 1894 763 
L 2988 3500 
L 3597 3500 
L 2059 -325 
z
" transform="scale(0.015625)"/>
      <path id="DejaVuSans-43b" d="M 238 0 
L 238 478 
Q 806 566 981 959 
Q 1194 1513 1194 2928 
L 1194 3500 
L 3559 3500 
L 3559 0 
L 2984 0 
L 2984 3041 
L 1769 3041 
L 1769 2694 
Q 1769 1344 1494 738 
Q 1200 91 238 0 
z
" transform="scale(0.015625)"/>
      <path id="DejaVuSans-44c" d="M 2781 1038 
Q 2781 1319 2576 1466 
Q 2372 1613 1978 1613 
L 1159 1613 
L 1159 459 
L 1978 459 
Q 2372 459 2576 607 
Q 2781 756 2781 1038 
z
M 581 3500 
L 1159 3500 
L 1159 2072 
L 2003 2072 
Q 2672 2072 3033 1817 
Q 3394 1563 3394 1038 
Q 3394 513 3033 256 
Q 2672 0 2003 0 
L 581 0 
L 581 3500 
z
" transform="scale(0.015625)"/>
      <path id="DejaVuSans-44b" d="M 3907 3500 
L 4482 3500 
L 4482 0 
L 3907 0 
L 3907 3500 
z
M 4195 3584 
L 4195 3584 
z
M 2781 1038 
Q 2781 1319 2576 1466 
Q 2372 1613 1978 1613 
L 1159 1613 
L 1159 459 
L 1978 459 
Q 2372 459 2576 607 
Q 2781 756 2781 1038 
z
M 581 3500 
L 1159 3500 
L 1159 2072 
L 2003 2072 
Q 2672 2072 3033 1817 
Q 3394 1563 3394 1038 
Q 3394 513 3033 256 
Q 2672 0 2003 0 
L 581 0 
L 581 3500 
z
" transform="scale(0.015625)"/>
      <path id="DejaVuSans-439" d="M 3578 3500 
L 3578 0 
L 3006 0 
L 3006 2809 
L 1319 0 
L 581 0 
L 581 3500 
L 1153 3500 
L 1153 697 
L 2838 3500 
L 3578 3500 
z
M 1102 4833 
L 1471 4833 
Q 1505 4599 1656 4481 
Q 1808 4364 2080 4364 
Q 2349 4364 2499 4480 
Q 2649 4596 2689 4833 
L 3058 4833 
Q 3027 4386 2780 4161 
Q 2533 3936 2080 3936 
Q 1627 3936 1380 4161 
Q 1133 4386 1102 4833 
z
" transform="scale(0.015625)"/>
      <path id="DejaVuSans-433" d="M 581 0 
L 581 3500 
L 3050 3500 
L 3050 3041 
L 1159 3041 
L 1159 0 
L 581 0 
z
" transform="scale(0.015625)"/>
      <path id="DejaVuSans-3a" d="M 750 794 
L 1409 794 
L 1409 0 
L 750 0 
L 750 794 
z
M 750 3309 
L 1409 3309 
L 1409 2516 
L 750 2516 
L 750 3309 
z
" transform="scale(0.015625)"/>
      <path id="DejaVuSans-432" d="M 1156 1613 
L 1156 459 
L 1975 459 
Q 2369 459 2575 607 
Q 2781 756 2781 1038 
Q 2781 1319 2575 1466 
Q 2369 1613 1975 1613 
L 1156 1613 
z
M 1156 3041 
L 1156 2072 
L 1913 2072 
Q 2238 2072 2444 2201 
Q 2650 2331 2650 2563 
Q 2650 2794 2444 2917 
Q 2238 3041 1913 3041 
L 1156 3041 
z
M 581 3500 
L 1950 3500 
Q 2566 3500 2897 3275 
Q 3228 3050 3228 2634 
Q 3228 2313 3059 2123 
Q 2891 1934 2559 1888 
Q 2956 1813 3175 1575 
Q 3394 1338 3394 981 
Q 3394 513 3033 256 
Q 2672 0 2003 0 
L 581 0 
L 581 3500 
z
" transform="scale(0.015625)"/>
      <path id="DejaVuSans-434" d="M 1384 459 
L 3053 459 
L 3053 3041 
L 1844 3041 
L 1844 2603 
Q 1844 1316 1475 628 
L 1384 459 
z
M 550 459 
Q 834 584 959 850 
Q 1266 1509 1266 2838 
L 1266 3500 
L 3631 3500 
L 3631 459 
L 4091 459 
L 4091 -884 
L 3631 -884 
L 3631 0 
L 794 0 
L 794 -884 
L 334 -884 
L 334 459 
L 550 459 
z
" transform="scale(0.015625)"/>
      <path id="DejaVuSans-445" d="M 3513 3500 
L 2247 1797 
L 3578 0 
L 2900 0 
L 1881 1375 
L 863 0 
L 184 0 
L 1544 1831 
L 300 3500 
L 978 3500 
L 1906 2253 
L 2834 3500 
L 3513 3500 
z
" transform="scale(0.015625)"/>
     </defs>
     <use xlink:href="#DejaVuSans-412"/>
     <use xlink:href="#DejaVuSans-438" x="68.603516"/>
     <use xlink:href="#DejaVuSans-440" x="133.59375"/>
     <use xlink:href="#DejaVuSans-442" x="197.070312"/>
     <use xlink:href="#DejaVuSans-443" x="255.322266"/>
     <use xlink:href="#DejaVuSans-430" x="314.501953"/>
     <use xlink:href="#DejaVuSans-43b" x="375.78125"/>
     <use xlink:href="#DejaVuSans-44c" x="439.697266"/>
     <use xlink:href="#DejaVuSans-43d" x="498.632812"/>
     <use xlink:href="#DejaVuSans-44b" x="564.013672"/>
     <use xlink:href="#DejaVuSans-439" x="642.96875"/>
     <use xlink:href="#DejaVuSans-20" x="707.958984"/>
     <use xlink:href="#DejaVuSans-43f" x="739.746094"/>
     <use xlink:href="#DejaVuSans-43e" x="805.126953"/>
     <use xlink:href="#DejaVuSans-43b" x="866.308594"/>
     <use xlink:href="#DejaVuSans-438" x="930.224609"/>
     <use xlink:href="#DejaVuSans-433" x="995.214844"/>
     <use xlink:href="#DejaVuSans-43e" x="1047.753906"/>
     <use xlink:href="#DejaVuSans-43d" x="1108.935547"/>
     <use xlink:href="#DejaVuSans-3a" x="1174.316406"/>
     <use xlink:href="#DejaVuSans-20" x="1208.007812"/>
     <use xlink:href="#DejaVuSans-432" x="1239.794922"/>
     <use xlink:href="#DejaVuSans-438" x="1298.730469"/>
     <use xlink:href="#DejaVuSans-434" x="1363.720703"/>
     <use xlink:href="#DejaVuSans-20" x="1432.861328"/>
     <use xlink:href="#DejaVuSans-441" x="1464.648438"/>
     <use xlink:href="#DejaVuSans-432" x="1519.628906"/>
     <use xlink:href="#DejaVuSans-435" x="1578.564453"/>
     <use xlink:href="#DejaVuSans-440" x="1640.087891"/>
     <use xlink:href="#DejaVuSans-445" x="1703.564453"/>
     <use xlink:href="#DejaVuSans-443" x="1762.744141"/>
    </g>
   </g>
   <g id="legend_1">
    <g id="patch_27">
     <path d="M 493.31 101.10875 
L 617.770937 101.10875 
Q 619.370937 101.10875 619.370937 99.50875 
L 619.370937 27.918125 
Q 619.370937 26.318125 617.770937 26.318125 
L 493.31 26.318125 
Q 491.71 26.318125 491.71 27.918125 
L 491.71 99.50875 
Q 491.71 101.10875 493.31 101.10875 
z
" style="fill: #ffffff; opacity: 0.8; stroke: #cccccc; stroke-linejoin: miter"/>
    </g>
    <g id="text_32">
     <!-- Условные обозначения -->
     <g transform="translate(494.91 37.116562) scale(0.1 -0.1)">
      <defs>
       <path id="DejaVuSans-423" d="M 2047 566 
Q 1981 409 1881 291 
Q 1634 0 850 0 
L 609 0 
L 609 531 
L 806 531 
Q 1178 531 1322 616 
Q 1409 669 1466 800 
L 1606 1131 
L 109 4666 
L 788 4666 
L 1947 1928 
L 3113 4666 
L 3791 4666 
L 2047 566 
z
" transform="scale(0.015625)"/>
       <path id="DejaVuSans-431" d="M 1991 3584 
Q 2741 3584 3169 3096 
Q 3597 2609 3597 1747 
Q 3597 888 3169 398 
Q 2741 -91 1991 -91 
Q 1238 -91 822 384 
Q 406 859 384 1747 
L 366 2463 
Q 350 2834 350 2963 
Q 350 3463 531 3831 
Q 816 4409 1308 4659 
Q 1800 4909 2625 4916 
Q 3006 4919 3175 4972 
L 3334 4516 
Q 3181 4453 3041 4450 
L 2259 4397 
Q 1866 4369 1628 4231 
Q 1006 3866 947 3388 
L 925 3213 
Q 1331 3584 1991 3584 
z
M 1991 3097 
Q 1528 3097 1259 2736 
Q 991 2375 991 1747 
Q 991 1119 1258 758 
Q 1525 397 1991 397 
Q 2450 397 2719 759 
Q 2988 1122 2988 1747 
Q 2988 2369 2719 2733 
Q 2450 3097 1991 3097 
z
" transform="scale(0.015625)"/>
       <path id="DejaVuSans-437" d="M 2206 1888 
Q 2594 1813 2809 1584 
Q 3025 1356 3025 1019 
Q 3025 478 2622 193 
Q 2219 -91 1475 -91 
Q 1225 -91 961 -47 
Q 697 -3 416 84 
L 416 619 
Q 638 503 903 445 
Q 1169 388 1459 388 
Q 1931 388 2195 563 
Q 2459 738 2459 1019 
Q 2459 1294 2225 1461 
Q 1991 1628 1563 1628 
L 1100 1628 
L 1100 2103 
L 1584 2103 
Q 1947 2103 2158 2242 
Q 2369 2381 2369 2600 
Q 2369 2800 2151 2944 
Q 1934 3088 1563 3088 
Q 1341 3088 1089 3047 
Q 838 3006 534 2916 
L 534 3438 
Q 841 3513 1106 3550 
Q 1372 3588 1609 3588 
Q 2222 3588 2576 3342 
Q 2931 3097 2931 2656 
Q 2931 2366 2743 2164 
Q 2556 1963 2206 1888 
z
" transform="scale(0.015625)"/>
       <path id="DejaVuSans-447" d="M 2625 0 
L 2625 1472 
L 1553 1472 
Q 1075 1472 756 1769 
Q 469 2038 469 2613 
L 469 3500 
L 1044 3500 
L 1044 2666 
Q 1044 2300 1206 2116 
Q 1372 1931 1697 1931 
L 2625 1931 
L 2625 3500 
L 3200 3500 
L 3200 0 
L 2625 0 
z
" transform="scale(0.015625)"/>
       <path id="DejaVuSans-44f" d="M 1181 2491 
Q 1181 2231 1381 2084 
Q 1581 1938 1953 1938 
L 2728 1938 
L 2728 3041 
L 1953 3041 
Q 1581 3041 1381 2897 
Q 1181 2753 1181 2491 
z
M 363 0 
L 1431 1534 
Q 1069 1616 828 1830 
Q 588 2044 588 2491 
Q 588 2997 923 3248 
Q 1259 3500 1938 3500 
L 3306 3500 
L 3306 0 
L 2728 0 
L 2728 1478 
L 2013 1478 
L 981 0 
L 363 0 
z
" transform="scale(0.015625)"/>
      </defs>
      <use xlink:href="#DejaVuSans-423"/>
      <use xlink:href="#DejaVuSans-441" x="60.9375"/>
      <use xlink:href="#DejaVuSans-43b" x="115.917969"/>
      <use xlink:href="#DejaVuSans-43e" x="179.833984"/>
      <use xlink:href="#DejaVuSans-432" x="241.015625"/>
      <use xlink:href="#DejaVuSans-43d" x="299.951172"/>
      <use xlink:href="#DejaVuSans-44b" x="365.332031"/>
      <use xlink:href="#DejaVuSans-435" x="444.287109"/>
      <use xlink:href="#DejaVuSans-20" x="505.810547"/>
      <use xlink:href="#DejaVuSans-43e" x="537.597656"/>
      <use xlink:href="#DejaVuSans-431" x="598.779297"/>
      <use xlink:href="#DejaVuSans-43e" x="660.449219"/>
      <use xlink:href="#DejaVuSans-437" x="721.630859"/>
      <use xlink:href="#DejaVuSans-43d" x="774.804688"/>
      <use xlink:href="#DejaVuSans-430" x="840.185547"/>
      <use xlink:href="#DejaVuSans-447" x="901.464844"/>
      <use xlink:href="#DejaVuSans-435" x="960.546875"/>
      <use xlink:href="#DejaVuSans-43d" x="1022.070312"/>
      <use xlink:href="#DejaVuSans-438" x="1087.451172"/>
      <use xlink:href="#DejaVuSans-44f" x="1152.441406"/>
     </g>
    </g>
    <g id="patch_28">
     <path d="M 501.075469 49.275 
L 517.075469 49.275 
L 517.075469 43.675 
L 501.075469 43.675 
z
" style="fill: #dce7df; stroke: #4f6f5f; stroke-width: 1.5; stroke-linejoin: miter"/>
    </g>
    <g id="text_33">
     <!-- Зона миссии -->
     <g transform="translate(523.475469 49.275) scale(0.08 -0.08)">
      <use xlink:href="#DejaVuSans-417"/>
      <use xlink:href="#DejaVuSans-43e" x="64.111328"/>
      <use xlink:href="#DejaVuSans-43d" x="125.292969"/>
      <use xlink:href="#DejaVuSans-430" x="190.673828"/>
      <use xlink:href="#DejaVuSans-20" x="251.953125"/>
      <use xlink:href="#DejaVuSans-43c" x="283.740234"/>
      <use xlink:href="#DejaVuSans-438" x="359.179688"/>
      <use xlink:href="#DejaVuSans-441" x="424.169922"/>
      <use xlink:href="#DejaVuSans-441" x="479.150391"/>
      <use xlink:href="#DejaVuSans-438" x="534.130859"/>
      <use xlink:href="#DejaVuSans-438" x="599.121094"/>
     </g>
    </g>
    <g id="patch_29">
     <path d="M 501.075469 61.0175 
L 517.075469 61.0175 
L 517.075469 55.4175 
L 501.075469 55.4175 
z
" style="fill: #666a70; stroke: #33363a; stroke-linejoin: miter"/>
    </g>
    <g id="text_34">
     <!-- Стат. препятствие -->
     <g transform="translate(523.475469 61.0175) scale(0.08 -0.08)">
      <defs>
       <path id="DejaVuSans-421" d="M 4122 4306 
L 4122 3641 
Q 3803 3938 3442 4084 
Q 3081 4231 2675 4231 
Q 1875 4231 1450 3742 
Q 1025 3253 1025 2328 
Q 1025 1406 1450 917 
Q 1875 428 2675 428 
Q 3081 428 3442 575 
Q 3803 722 4122 1019 
L 4122 359 
Q 3791 134 3420 21 
Q 3050 -91 2638 -91 
Q 1578 -91 968 557 
Q 359 1206 359 2328 
Q 359 3453 968 4101 
Q 1578 4750 2638 4750 
Q 3056 4750 3426 4639 
Q 3797 4528 4122 4306 
z
" transform="scale(0.015625)"/>
       <path id="DejaVuSans-2e" d="M 684 794 
L 1344 794 
L 1344 0 
L 684 0 
L 684 794 
z
" transform="scale(0.015625)"/>
      </defs>
      <use xlink:href="#DejaVuSans-421"/>
      <use xlink:href="#DejaVuSans-442" x="69.824219"/>
      <use xlink:href="#DejaVuSans-430" x="128.076172"/>
      <use xlink:href="#DejaVuSans-442" x="189.355469"/>
      <use xlink:href="#DejaVuSans-2e" x="247.607422"/>
      <use xlink:href="#DejaVuSans-20" x="279.394531"/>
      <use xlink:href="#DejaVuSans-43f" x="311.181641"/>
      <use xlink:href="#DejaVuSans-440" x="376.5625"/>
      <use xlink:href="#DejaVuSans-435" x="440.039062"/>
      <use xlink:href="#DejaVuSans-43f" x="501.5625"/>
      <use xlink:href="#DejaVuSans-44f" x="566.943359"/>
      <use xlink:href="#DejaVuSans-442" x="627.099609"/>
      <use xlink:href="#DejaVuSans-441" x="685.351562"/>
      <use xlink:href="#DejaVuSans-442" x="740.332031"/>
      <use xlink:href="#DejaVuSans-432" x="798.583984"/>
      <use xlink:href="#DejaVuSans-438" x="857.519531"/>
      <use xlink:href="#DejaVuSans-435" x="922.509766"/>
     </g>
    </g>
    <g id="patch_30">
     <path d="M 501.075469 72.76 
L 517.075469 72.76 
L 517.075469 67.16 
L 501.075469 67.16 
z
" style="fill: #d9534f; stroke: #8c2d2a; stroke-linejoin: miter"/>
    </g>
    <g id="text_35">
     <!-- Динам. препятствие -->
     <g transform="translate(523.475469 72.76) scale(0.08 -0.08)">
      <defs>
       <path id="DejaVuSans-414" d="M 1459 531 
L 3522 531 
L 3522 4134 
L 2006 4134 
L 2006 3472 
Q 2006 1913 1656 878 
Q 1584 666 1459 531 
z
M 538 531 
Q 956 728 1075 1103 
Q 1378 2066 1378 3784 
L 1378 4666 
L 4153 4666 
L 4153 531 
L 4684 531 
L 4684 -1003 
L 4153 -1003 
L 4153 0 
L 847 0 
L 847 -1003 
L 316 -1003 
L 316 531 
L 538 531 
z
" transform="scale(0.015625)"/>
      </defs>
      <use xlink:href="#DejaVuSans-414"/>
      <use xlink:href="#DejaVuSans-438" x="78.125"/>
      <use xlink:href="#DejaVuSans-43d" x="143.115234"/>
      <use xlink:href="#DejaVuSans-430" x="208.496094"/>
      <use xlink:href="#DejaVuSans-43c" x="269.775391"/>
      <use xlink:href="#DejaVuSans-2e" x="345.214844"/>
      <use xlink:href="#DejaVuSans-20" x="377.001953"/>
      <use xlink:href="#DejaVuSans-43f" x="408.789062"/>
      <use xlink:href="#DejaVuSans-440" x="474.169922"/>
      <use xlink:href="#DejaVuSans-435" x="537.646484"/>
      <use xlink:href="#DejaVuSans-43f" x="599.169922"/>
      <use xlink:href="#DejaVuSans-44f" x="664.550781"/>
      <use xlink:href="#DejaVuSans-442" x="724.707031"/>
      <use xlink:href="#DejaVuSans-441" x="782.958984"/>
      <use xlink:href="#DejaVuSans-442" x="837.939453"/>
      <use xlink:href="#DejaVuSans-432" x="896.191406"/>
      <use xlink:href="#DejaVuSans-438" x="955.126953"/>
      <use xlink:href="#DejaVuSans-435" x="1020.117188"/>
     </g>
    </g>
    <g id="patch_31">
     <path d="M 501.075469 84.5025 
L 517.075469 84.5025 
L 517.075469 78.9025 
L 501.075469 78.9025 
z
" style="fill: #cf3b31; opacity: 0.35; stroke: #8a1f18; stroke-linejoin: miter"/>
    </g>
    <g id="text_36">
     <!-- Запретная зона -->
     <g transform="translate(523.475469 84.5025) scale(0.08 -0.08)">
      <use xlink:href="#DejaVuSans-417"/>
      <use xlink:href="#DejaVuSans-430" x="64.111328"/>
      <use xlink:href="#DejaVuSans-43f" x="125.390625"/>
      <use xlink:href="#DejaVuSans-440" x="190.771484"/>
      <use xlink:href="#DejaVuSans-435" x="254.248047"/>
      <use xlink:href="#DejaVuSans-442" x="315.771484"/>
      <use xlink:href="#DejaVuSans-43d" x="374.023438"/>
      <use xlink:href="#DejaVuSans-430" x="439.404297"/>
      <use xlink:href="#DejaVuSans-44f" x="500.683594"/>
      <use xlink:href="#DejaVuSans-20" x="560.839844"/>
      <use xlink:href="#DejaVuSans-437" x="592.626953"/>
      <use xlink:href="#DejaVuSans-43e" x="645.800781"/>
      <use xlink:href="#DejaVuSans-43d" x="706.982422"/>
      <use xlink:href="#DejaVuSans-430" x="772.363281"/>
     </g>
    </g>
    <g id="patch_32">
     <path d="M 501.075469 96.245 
L 517.075469 96.245 
L 517.075469 90.645 
L 501.075469 90.645 
z
" style="fill: #e0a824; opacity: 0.4; stroke: #9a6d12; stroke-linejoin: miter"/>
    </g>
    <g id="text_37">
     <!-- Зона риска -->
     <g transform="translate(523.475469 96.245) scale(0.08 -0.08)">
      <use xlink:href="#DejaVuSans-417"/>
      <use xlink:href="#DejaVuSans-43e" x="64.111328"/>
      <use xlink:href="#DejaVuSans-43d" x="125.292969"/>
      <use xlink:href="#DejaVuSans-430" x="190.673828"/>
      <use xlink:href="#DejaVuSans-20" x="251.953125"/>
      <use xlink:href="#DejaVuSans-440" x="283.740234"/>
      <use xlink:href="#DejaVuSans-438" x="347.216797"/>
      <use xlink:href="#DejaVuSans-441" x="412.207031"/>
      <use xlink:href="#DejaVuSans-43a" x="467.1875"/>
      <use xlink:href="#DejaVuSans-430" x="527.587891"/>
     </g>
    </g>
   </g>
  </g>
 </g>
 <defs>
  <clipPath id="p6ccd4cabaa">
   <rect x="44.210938" y="22.318125" width="579.16" height="579.16"/>
  </clipPath>
 </defs>
</svg>
